G04 #@! TF.GenerationSoftware,KiCad,Pcbnew,8.0.9*
G04 #@! TF.CreationDate,2025-09-29T16:44:46-07:00*
G04 #@! TF.ProjectId,keyboard,6b657962-6f61-4726-942e-6b696361645f,v0.0.0-alpha*
G04 #@! TF.SameCoordinates,Original*
G04 #@! TF.FileFunction,Copper,L2,Inr*
G04 #@! TF.FilePolarity,Positive*
%FSLAX46Y46*%
G04 Gerber Fmt 4.6, Leading zero omitted, Abs format (unit mm)*
G04 Created by KiCad (PCBNEW 8.0.9) date 2025-09-29 16:44:46*
%MOMM*%
%LPD*%
G01*
G04 APERTURE LIST*
G04 #@! TA.AperFunction,ViaPad*
%ADD10C,0.600000*%
G04 #@! TD*
G04 #@! TA.AperFunction,Conductor*
%ADD11C,0.200000*%
G04 #@! TD*
G04 APERTURE END LIST*
D10*
G04 #@! TO.N,COL0*
X95396700Y-161116700D03*
G04 #@! TO.N,COL1*
X114446700Y-161125000D03*
G04 #@! TO.N,COL12*
X319234200Y-180125000D03*
G04 #@! TO.N,COL13*
X343031700Y-218281700D03*
G04 #@! TO.N,COL14*
X362090000Y-180160000D03*
G04 #@! TO.N,COL15*
X376384200Y-161250000D03*
G04 #@! TO.N,COL16*
X395434200Y-161125000D03*
G04 #@! TO.N,COL17*
X414375000Y-161000000D03*
G04 #@! TO.N,COL18*
X438296700Y-142066700D03*
G04 #@! TO.N,COL19*
X457346700Y-142066700D03*
G04 #@! TO.N,COL2*
X138259200Y-180166700D03*
G04 #@! TO.N,COL20*
X476396700Y-142066700D03*
G04 #@! TO.N,COL21*
X490684200Y-161116700D03*
G04 #@! TO.N,COL3*
X157375000Y-180125000D03*
G04 #@! TO.N,COL4*
X176437500Y-180312500D03*
G04 #@! TO.N,COL5*
X195500000Y-180250000D03*
G04 #@! TO.N,COL6*
X214459200Y-180166700D03*
G04 #@! TO.N,COL7*
X223984200Y-199250000D03*
G04 #@! TO.N,COL8*
X238271700Y-237316700D03*
G04 #@! TO.N,COL9*
X257375000Y-180250000D03*
G04 #@! TO.N,ROW0*
X450461700Y-150006700D03*
X155186700Y-150006700D03*
X117086700Y-150006700D03*
X374261700Y-150006700D03*
X212336700Y-150006700D03*
X231386700Y-150006700D03*
X285685000Y-166515000D03*
X469511700Y-150006700D03*
X412361700Y-150006700D03*
X393311700Y-150006700D03*
X174236700Y-150006700D03*
X431411700Y-150006700D03*
X193286700Y-150006700D03*
X136136700Y-150006700D03*
X488561700Y-150006700D03*
G04 #@! TO.N,ROW1*
X164711700Y-169056700D03*
X426649200Y-169056700D03*
X183761700Y-169056700D03*
X107561700Y-169056700D03*
X126611700Y-169056700D03*
X464749200Y-169056700D03*
X445699200Y-169056700D03*
X331399200Y-169056700D03*
X502849200Y-169056700D03*
X388549200Y-169056700D03*
X369499200Y-169056700D03*
X285625000Y-169056700D03*
X221875000Y-169056700D03*
X407599200Y-169056700D03*
X483799200Y-169056700D03*
X269486700Y-169056700D03*
X202875000Y-169056700D03*
X145661700Y-169056700D03*
G04 #@! TO.N,ROW2*
X393311700Y-188106700D03*
X431411700Y-188106700D03*
X285685000Y-171595000D03*
X412361700Y-188106700D03*
X488561700Y-188106700D03*
X112324200Y-188106700D03*
X331399200Y-188106700D03*
X450461700Y-188106700D03*
X131374200Y-188106700D03*
X374261700Y-188106700D03*
X169474200Y-188106700D03*
X226624200Y-188106700D03*
X269486700Y-188106700D03*
X150424200Y-188106700D03*
X207574200Y-188106700D03*
X188524200Y-188106700D03*
X469511700Y-188106700D03*
G04 #@! TO.N,ROW3*
X198049200Y-207156700D03*
X217099200Y-207156700D03*
X402836700Y-207156700D03*
X269500000Y-207156700D03*
X479036700Y-207156700D03*
X421886700Y-207156700D03*
X364736700Y-207156700D03*
X331399200Y-207156700D03*
X121849200Y-207156700D03*
X383786700Y-207156700D03*
X236149200Y-207156700D03*
X459986700Y-207156700D03*
X440936700Y-207156700D03*
X178999200Y-207156700D03*
X140899200Y-207156700D03*
X285685000Y-174135000D03*
X159949200Y-207156700D03*
G04 #@! TO.N,ROW4*
X455224200Y-226206700D03*
X145661700Y-226206700D03*
X285685000Y-179215000D03*
X374261700Y-226206700D03*
X393311700Y-226206700D03*
X126611700Y-226206700D03*
X207574200Y-226206700D03*
X226624200Y-226206700D03*
X355211700Y-226206700D03*
X245625000Y-226206700D03*
X474274200Y-226206700D03*
G04 #@! TO.N,ROW5*
X250436700Y-245256700D03*
X388549200Y-245256700D03*
X212336700Y-245256700D03*
X369499200Y-245256700D03*
X231386700Y-245256700D03*
X285685000Y-181755000D03*
X300443000Y-245256700D03*
X350449200Y-245256700D03*
G04 #@! TD*
D11*
G04 #@! TO.N,ROW0*
X270612588Y-166515000D02*
X254104288Y-150006700D01*
X254104288Y-150006700D02*
X231386700Y-150006700D01*
X285685000Y-166515000D02*
X270612588Y-166515000D01*
G04 #@! TO.N,ROW2*
X269486700Y-187793300D02*
X285685000Y-171595000D01*
X269486700Y-188106700D02*
X269486700Y-187793300D01*
G04 #@! TO.N,ROW3*
X269500000Y-203526598D02*
X269500000Y-207156700D01*
X265071700Y-195900050D02*
X265071700Y-199098298D01*
X285685000Y-174135000D02*
X285685000Y-175286750D01*
X285685000Y-175286750D02*
X265071700Y-195900050D01*
X265071700Y-199098298D02*
X269500000Y-203526598D01*
G04 #@! TO.N,ROW4*
X245625000Y-226206700D02*
X251285229Y-226206700D01*
X280250000Y-202000000D02*
X280250000Y-185500000D01*
X280250000Y-185500000D02*
X285685000Y-179215000D01*
X251160229Y-226206700D02*
X280250000Y-202000000D01*
G04 #@! TO.N,ROW5*
X301668000Y-197738000D02*
X285685000Y-181755000D01*
X301668000Y-244031700D02*
X301668000Y-197738000D01*
X300443000Y-245256700D02*
X301668000Y-244031700D01*
G04 #@! TD*
M02*
