M48
; DRILL file {KiCad 8.0.9} date 2025-09-25T17:38:48-0700
; FORMAT={-:-/ absolute / metric / decimal}
; #@! TF.CreationDate,2025-09-25T17:38:48-07:00
; #@! TF.GenerationSoftware,Kicad,Pcbnew,8.0.9
; #@! TF.FileFunction,Plated,1,4,PTH
FMAT,2
METRIC
; #@! TA.AperFunction,Plated,PTH,ViaDrill
T1C0.300
%
G90
G05
T1
X95.397Y-161.117
X107.562Y-169.057
X112.324Y-188.107
X114.447Y-161.125
X117.087Y-150.007
X121.849Y-207.157
X126.612Y-169.057
X126.612Y-226.207
X131.374Y-188.107
X136.137Y-150.007
X138.259Y-180.167
X140.899Y-207.157
X145.662Y-169.057
X145.662Y-226.207
X150.424Y-188.107
X155.187Y-150.007
X157.375Y-180.125
X159.949Y-207.157
X164.712Y-169.057
X169.474Y-188.107
X174.237Y-150.007
X176.438Y-180.312
X178.999Y-207.157
X183.762Y-169.057
X188.524Y-188.107
X193.287Y-150.007
X195.5Y-180.25
X198.049Y-207.157
X202.875Y-169.057
X207.574Y-188.107
X207.574Y-226.207
X212.337Y-150.007
X212.337Y-245.257
X214.459Y-180.167
X217.099Y-207.157
X221.875Y-169.057
X223.984Y-199.25
X226.624Y-188.107
X226.624Y-226.207
X231.387Y-150.007
X231.387Y-245.257
X236.149Y-207.157
X238.272Y-237.317
X245.625Y-226.207
X250.437Y-245.257
X257.375Y-180.25
X269.487Y-169.057
X269.487Y-188.107
X269.5Y-207.157
X285.625Y-169.057
X285.685Y-166.515
X285.685Y-171.595
X285.685Y-174.135
X285.685Y-179.215
X285.685Y-181.755
X300.443Y-245.257
X319.234Y-180.125
X331.399Y-169.057
X331.399Y-188.107
X331.399Y-207.157
X343.032Y-218.282
X350.449Y-245.257
X355.212Y-226.207
X362.09Y-180.16
X364.737Y-207.157
X369.499Y-169.057
X369.499Y-245.257
X374.262Y-150.007
X374.262Y-188.107
X374.262Y-226.207
X376.384Y-161.25
X383.787Y-207.157
X388.549Y-169.057
X388.549Y-245.257
X393.312Y-150.007
X393.312Y-188.107
X393.312Y-226.207
X395.434Y-161.125
X402.837Y-207.157
X407.599Y-169.057
X412.362Y-150.007
X412.362Y-188.107
X414.375Y-161.0
X421.887Y-207.157
X426.649Y-169.057
X431.412Y-150.007
X431.412Y-188.107
X438.297Y-142.067
X440.937Y-207.157
X445.699Y-169.057
X450.462Y-150.007
X450.462Y-188.107
X455.224Y-226.207
X457.347Y-142.067
X459.987Y-207.157
X464.749Y-169.057
X469.512Y-150.007
X469.512Y-188.107
X474.274Y-226.207
X476.397Y-142.067
X479.037Y-207.157
X483.799Y-169.057
X488.562Y-150.007
X488.562Y-188.107
X490.684Y-161.117
X502.849Y-169.057
M30
