M48
; DRILL file {KiCad 8.0.9} date 2025-09-25T17:38:48-0700
; FORMAT={-:-/ absolute / metric / decimal}
; #@! TF.CreationDate,2025-09-25T17:38:48-07:00
; #@! TF.GenerationSoftware,Kicad,Pcbnew,8.0.9
; #@! TF.FileFunction,NonPlated,1,4,NPTH
FMAT,2
METRIC
; #@! TA.AperFunction,NonPlated,NPTH,ComponentDrill
T1C1.750
; #@! TA.AperFunction,NonPlated,NPTH,ComponentDrill
T2C3.050
; #@! TA.AperFunction,NonPlated,NPTH,ComponentDrill
T3C4.000
%
G90
G05
T1
X97.402Y-163.657
X102.164Y-182.707
X106.927Y-144.607
X107.562Y-163.657
X111.689Y-201.757
X112.324Y-182.707
X116.452Y-163.657
X116.452Y-220.807
X117.087Y-144.607
X121.214Y-182.707
X121.849Y-201.757
X125.977Y-144.607
X126.612Y-163.657
X126.612Y-220.807
X130.739Y-201.757
X131.374Y-182.707
X135.502Y-163.657
X135.502Y-220.807
X136.137Y-144.607
X140.264Y-182.707
X140.899Y-201.757
X145.027Y-144.607
X145.662Y-163.657
X145.662Y-220.807
X149.789Y-201.757
X150.424Y-182.707
X154.552Y-163.657
X155.187Y-144.607
X159.314Y-182.707
X159.949Y-201.757
X164.077Y-144.607
X164.712Y-163.657
X168.839Y-201.757
X169.474Y-182.707
X173.602Y-163.657
X174.237Y-144.607
X178.364Y-182.707
X178.999Y-201.757
X183.127Y-144.607
X183.762Y-163.657
X187.889Y-201.757
X188.524Y-182.707
X192.652Y-163.657
X193.287Y-144.607
X197.414Y-182.707
X197.414Y-220.807
X198.049Y-201.757
X202.177Y-144.607
X202.177Y-239.857
X202.812Y-163.657
X206.939Y-201.757
X207.574Y-182.707
X207.574Y-220.807
X211.702Y-163.657
X212.337Y-144.607
X212.337Y-239.857
X216.464Y-182.707
X216.464Y-220.807
X217.099Y-201.757
X221.227Y-144.607
X221.227Y-239.857
X221.862Y-163.657
X225.989Y-201.757
X226.624Y-182.707
X226.624Y-220.807
X231.387Y-144.607
X231.387Y-239.857
X235.514Y-220.807
X236.149Y-201.757
X240.277Y-239.857
X245.674Y-220.807
X250.437Y-239.857
X259.327Y-163.657
X259.327Y-182.707
X259.327Y-201.757
X269.487Y-163.657
X269.487Y-182.707
X269.487Y-201.757
X290.283Y-239.857
X300.443Y-239.857
X321.239Y-163.657
X321.239Y-182.707
X321.239Y-201.757
X331.399Y-163.657
X331.399Y-182.707
X331.399Y-201.757
X340.289Y-239.857
X345.052Y-220.807
X350.449Y-239.857
X354.577Y-201.757
X355.212Y-220.807
X359.339Y-163.657
X359.339Y-239.857
X364.102Y-144.607
X364.102Y-182.707
X364.102Y-220.807
X364.737Y-201.757
X369.499Y-163.657
X369.499Y-239.857
X373.627Y-201.757
X374.262Y-144.607
X374.262Y-182.707
X374.262Y-220.807
X378.389Y-163.657
X378.389Y-239.857
X383.152Y-144.607
X383.152Y-182.707
X383.152Y-220.807
X383.787Y-201.757
X388.549Y-163.657
X388.549Y-239.857
X392.677Y-201.757
X393.312Y-144.607
X393.312Y-182.707
X393.312Y-220.807
X397.439Y-163.657
X402.202Y-144.607
X402.202Y-182.707
X402.837Y-201.757
X407.599Y-163.657
X411.727Y-201.757
X412.362Y-144.607
X412.362Y-182.707
X416.489Y-163.657
X421.252Y-144.607
X421.252Y-182.707
X421.887Y-201.757
X426.649Y-163.657
X430.777Y-201.757
X431.412Y-144.607
X431.412Y-182.707
X435.539Y-163.657
X440.302Y-144.607
X440.302Y-182.707
X440.937Y-201.757
X445.064Y-220.807
X445.699Y-163.657
X449.827Y-201.757
X450.462Y-144.607
X450.462Y-182.707
X454.589Y-163.657
X455.224Y-220.807
X459.352Y-144.607
X459.352Y-182.707
X459.987Y-201.757
X464.114Y-220.807
X464.749Y-163.657
X468.877Y-201.757
X469.512Y-144.607
X469.512Y-182.707
X473.639Y-163.657
X474.274Y-220.807
X478.402Y-144.607
X478.402Y-182.707
X479.037Y-201.757
X483.799Y-163.657
X488.562Y-144.607
X488.562Y-182.707
X492.689Y-163.657
X502.849Y-163.657
T2
X98.672Y-161.117
X103.434Y-180.167
X105.022Y-158.577
X108.197Y-142.067
X109.784Y-177.627
X112.959Y-199.217
X114.547Y-139.527
X117.722Y-161.117
X117.722Y-218.267
X119.309Y-196.677
X122.484Y-180.167
X124.072Y-158.577
X124.072Y-215.727
X127.247Y-142.067
X128.834Y-177.627
X132.009Y-199.217
X133.597Y-139.527
X136.772Y-161.117
X136.772Y-218.267
X138.359Y-196.677
X141.534Y-180.167
X143.122Y-158.577
X143.122Y-215.727
X146.297Y-142.067
X147.884Y-177.627
X151.059Y-199.217
X152.647Y-139.527
X155.822Y-161.117
X157.409Y-196.677
X160.584Y-180.167
X162.172Y-158.577
X165.347Y-142.067
X166.934Y-177.627
X170.109Y-199.217
X171.697Y-139.527
X174.872Y-161.117
X176.459Y-196.677
X179.634Y-180.167
X181.222Y-158.577
X184.397Y-142.067
X185.984Y-177.627
X189.159Y-199.217
X190.747Y-139.527
X193.922Y-161.117
X195.509Y-196.677
X198.684Y-180.167
X198.684Y-218.267
X200.272Y-158.577
X203.447Y-142.067
X203.447Y-237.317
X205.034Y-177.627
X205.034Y-215.727
X208.209Y-199.217
X209.797Y-139.527
X209.797Y-234.777
X212.972Y-161.117
X214.559Y-196.677
X217.734Y-180.167
X217.734Y-218.267
X219.322Y-158.577
X222.497Y-142.067
X222.497Y-237.317
X224.084Y-177.627
X224.084Y-215.727
X227.259Y-199.217
X228.847Y-139.527
X228.847Y-234.777
X233.609Y-196.677
X236.784Y-218.267
X241.547Y-237.317
X243.134Y-215.727
X247.897Y-234.777
X260.597Y-161.117
X260.597Y-180.167
X260.597Y-199.217
X266.947Y-158.577
X266.947Y-177.627
X266.947Y-196.677
X291.553Y-237.317
X297.903Y-234.777
X322.509Y-161.117
X322.509Y-180.167
X322.509Y-199.217
X328.859Y-158.577
X328.859Y-177.627
X328.859Y-196.677
X341.559Y-237.317
X346.322Y-218.267
X347.909Y-234.777
X352.672Y-215.727
X355.847Y-199.217
X360.609Y-161.117
X360.609Y-237.317
X362.197Y-196.677
X365.372Y-142.067
X365.372Y-180.167
X365.372Y-218.267
X366.959Y-158.577
X366.959Y-234.777
X371.722Y-139.527
X371.722Y-177.627
X371.722Y-215.727
X374.897Y-199.217
X379.659Y-161.117
X379.659Y-237.317
X381.247Y-196.677
X384.422Y-142.067
X384.422Y-180.167
X384.422Y-218.267
X386.009Y-158.577
X386.009Y-234.777
X390.772Y-139.527
X390.772Y-177.627
X390.772Y-215.727
X393.947Y-199.217
X398.709Y-161.117
X400.297Y-196.677
X403.472Y-142.067
X403.472Y-180.167
X405.059Y-158.577
X409.822Y-139.527
X409.822Y-177.627
X412.997Y-199.217
X417.759Y-161.117
X419.347Y-196.677
X422.522Y-142.067
X422.522Y-180.167
X424.109Y-158.577
X428.872Y-139.527
X428.872Y-177.627
X432.047Y-199.217
X436.809Y-161.117
X438.397Y-196.677
X441.572Y-142.067
X441.572Y-180.167
X443.159Y-158.577
X446.334Y-218.267
X447.922Y-139.527
X447.922Y-177.627
X451.097Y-199.217
X452.684Y-215.727
X455.859Y-161.117
X457.447Y-196.677
X460.622Y-142.067
X460.622Y-180.167
X462.209Y-158.577
X465.384Y-218.267
X466.972Y-139.527
X466.972Y-177.627
X470.147Y-199.217
X471.734Y-215.727
X474.909Y-161.117
X476.497Y-196.677
X479.672Y-142.067
X479.672Y-180.167
X481.259Y-158.577
X486.022Y-139.527
X486.022Y-177.627
X493.959Y-161.117
X500.309Y-158.577
T3
X102.482Y-163.657
X107.244Y-182.707
X112.007Y-144.607
X116.769Y-201.757
X121.532Y-163.657
X121.532Y-220.807
X126.294Y-182.707
X131.057Y-144.607
X135.819Y-201.757
X140.582Y-163.657
X140.582Y-220.807
X145.344Y-182.707
X150.107Y-144.607
X154.869Y-201.757
X159.632Y-163.657
X164.394Y-182.707
X169.157Y-144.607
X173.919Y-201.757
X178.682Y-163.657
X183.444Y-182.707
X188.207Y-144.607
X192.969Y-201.757
X197.732Y-163.657
X202.494Y-182.707
X202.494Y-220.807
X207.257Y-144.607
X207.257Y-239.857
X212.019Y-201.757
X216.782Y-163.657
X221.544Y-182.707
X221.544Y-220.807
X226.307Y-144.607
X226.307Y-239.857
X231.069Y-201.757
X240.594Y-220.807
X245.357Y-239.857
X264.407Y-163.657
X264.407Y-182.707
X264.407Y-201.757
X295.363Y-239.857
X326.319Y-163.657
X326.319Y-182.707
X326.319Y-201.757
X345.369Y-239.857
X350.132Y-220.807
X359.657Y-201.757
X364.419Y-163.657
X364.419Y-239.857
X369.182Y-144.607
X369.182Y-182.707
X369.182Y-220.807
X378.707Y-201.757
X383.469Y-163.657
X383.469Y-239.857
X388.232Y-144.607
X388.232Y-182.707
X388.232Y-220.807
X397.757Y-201.757
X402.519Y-163.657
X407.282Y-144.607
X407.282Y-182.707
X416.807Y-201.757
X421.569Y-163.657
X426.332Y-144.607
X426.332Y-182.707
X435.857Y-201.757
X440.619Y-163.657
X445.382Y-144.607
X445.382Y-182.707
X450.144Y-220.807
X454.907Y-201.757
X459.669Y-163.657
X464.432Y-144.607
X464.432Y-182.707
X469.194Y-220.807
X473.957Y-201.757
X478.719Y-163.657
X483.482Y-144.607
X483.482Y-182.707
X497.769Y-163.657
M30
