G04 #@! TF.GenerationSoftware,KiCad,Pcbnew,8.0.9*
G04 #@! TF.CreationDate,2025-09-25T17:38:48-07:00*
G04 #@! TF.ProjectId,keyboard,6b657962-6f61-4726-942e-6b696361645f,v0.0.0-alpha*
G04 #@! TF.SameCoordinates,Original*
G04 #@! TF.FileFunction,Soldermask,Bot*
G04 #@! TF.FilePolarity,Negative*
%FSLAX46Y46*%
G04 Gerber Fmt 4.6, Leading zero omitted, Abs format (unit mm)*
G04 Created by KiCad (PCBNEW 8.0.9) date 2025-09-25 17:38:48*
%MOMM*%
%LPD*%
G01*
G04 APERTURE LIST*
G04 Aperture macros list*
%AMRoundRect*
0 Rectangle with rounded corners*
0 $1 Rounding radius*
0 $2 $3 $4 $5 $6 $7 $8 $9 X,Y pos of 4 corners*
0 Add a 4 corners polygon primitive as box body*
4,1,4,$2,$3,$4,$5,$6,$7,$8,$9,$2,$3,0*
0 Add four circle primitives for the rounded corners*
1,1,$1+$1,$2,$3*
1,1,$1+$1,$4,$5*
1,1,$1+$1,$6,$7*
1,1,$1+$1,$8,$9*
0 Add four rect primitives between the rounded corners*
20,1,$1+$1,$2,$3,$4,$5,0*
20,1,$1+$1,$4,$5,$6,$7,0*
20,1,$1+$1,$6,$7,$8,$9,0*
20,1,$1+$1,$8,$9,$2,$3,0*%
G04 Aperture macros list end*
%ADD10C,1.750000*%
%ADD11C,3.050000*%
%ADD12C,4.000000*%
%ADD13RoundRect,0.250000X-1.025000X-1.000000X1.025000X-1.000000X1.025000X1.000000X-1.025000X1.000000X0*%
%ADD14RoundRect,0.250000X0.300000X-0.300000X0.300000X0.300000X-0.300000X0.300000X-0.300000X-0.300000X0*%
G04 APERTURE END LIST*
D10*
G04 #@! TO.C,SW27*
X416489200Y-163656700D03*
D11*
X417759200Y-161116700D03*
D12*
X421569200Y-163656700D03*
D11*
X424109200Y-158576700D03*
D10*
X426649200Y-163656700D03*
D13*
X414484200Y-161116700D03*
X427411200Y-158576700D03*
G04 #@! TD*
D10*
G04 #@! TO.C,SW37*
X197414200Y-182706700D03*
D11*
X198684200Y-180166700D03*
D12*
X202494200Y-182706700D03*
D11*
X205034200Y-177626700D03*
D10*
X207574200Y-182706700D03*
D13*
X195409200Y-180166700D03*
X208336200Y-177626700D03*
G04 #@! TD*
D10*
G04 #@! TO.C,SW63*
X468876700Y-201756700D03*
D11*
X470146700Y-199216700D03*
D12*
X473956700Y-201756700D03*
D11*
X476496700Y-196676700D03*
D10*
X479036700Y-201756700D03*
D13*
X466871700Y-199216700D03*
X479798700Y-196676700D03*
G04 #@! TD*
D10*
G04 #@! TO.C,SW50*
X149789200Y-201756700D03*
D11*
X151059200Y-199216700D03*
D12*
X154869200Y-201756700D03*
D11*
X157409200Y-196676700D03*
D10*
X159949200Y-201756700D03*
D13*
X147784200Y-199216700D03*
X160711200Y-196676700D03*
G04 #@! TD*
D10*
G04 #@! TO.C,SW71*
X383151700Y-220806700D03*
D11*
X384421700Y-218266700D03*
D12*
X388231700Y-220806700D03*
D11*
X390771700Y-215726700D03*
D10*
X393311700Y-220806700D03*
D13*
X381146700Y-218266700D03*
X394073700Y-215726700D03*
G04 #@! TD*
D10*
G04 #@! TO.C,SW39*
X259326700Y-182706700D03*
D11*
X260596700Y-180166700D03*
D12*
X264406700Y-182706700D03*
D11*
X266946700Y-177626700D03*
D10*
X269486700Y-182706700D03*
D13*
X257321700Y-180166700D03*
X270248700Y-177626700D03*
G04 #@! TD*
D10*
G04 #@! TO.C,SW56*
X321239200Y-201756700D03*
D11*
X322509200Y-199216700D03*
D12*
X326319200Y-201756700D03*
D11*
X328859200Y-196676700D03*
D10*
X331399200Y-201756700D03*
D13*
X319234200Y-199216700D03*
X332161200Y-196676700D03*
G04 #@! TD*
D10*
G04 #@! TO.C,SW45*
X440301700Y-182706700D03*
D11*
X441571700Y-180166700D03*
D12*
X445381700Y-182706700D03*
D11*
X447921700Y-177626700D03*
D10*
X450461700Y-182706700D03*
D13*
X438296700Y-180166700D03*
X451223700Y-177626700D03*
G04 #@! TD*
D10*
G04 #@! TO.C,SW6*
X202176700Y-144606700D03*
D11*
X203446700Y-142066700D03*
D12*
X207256700Y-144606700D03*
D11*
X209796700Y-139526700D03*
D10*
X212336700Y-144606700D03*
D13*
X200171700Y-142066700D03*
X213098700Y-139526700D03*
G04 #@! TD*
D10*
G04 #@! TO.C,SW70*
X364101700Y-220806700D03*
D11*
X365371700Y-218266700D03*
D12*
X369181700Y-220806700D03*
D11*
X371721700Y-215726700D03*
D10*
X374261700Y-220806700D03*
D13*
X362096700Y-218266700D03*
X375023700Y-215726700D03*
G04 #@! TD*
D10*
G04 #@! TO.C,SW72*
X445064200Y-220806700D03*
D11*
X446334200Y-218266700D03*
D12*
X450144200Y-220806700D03*
D11*
X452684200Y-215726700D03*
D10*
X455224200Y-220806700D03*
D13*
X443059200Y-218266700D03*
X455986200Y-215726700D03*
G04 #@! TD*
D10*
G04 #@! TO.C,SW40*
X321239200Y-182706700D03*
D11*
X322509200Y-180166700D03*
D12*
X326319200Y-182706700D03*
D11*
X328859200Y-177626700D03*
D10*
X331399200Y-182706700D03*
D13*
X319234200Y-180166700D03*
X332161200Y-177626700D03*
G04 #@! TD*
D10*
G04 #@! TO.C,SW65*
X135501700Y-220806700D03*
D11*
X136771700Y-218266700D03*
D12*
X140581700Y-220806700D03*
D11*
X143121700Y-215726700D03*
D10*
X145661700Y-220806700D03*
D13*
X133496700Y-218266700D03*
X146423700Y-215726700D03*
G04 #@! TD*
D10*
G04 #@! TO.C,SW1*
X106926700Y-144606700D03*
D11*
X108196700Y-142066700D03*
D12*
X112006700Y-144606700D03*
D11*
X114546700Y-139526700D03*
D10*
X117086700Y-144606700D03*
D13*
X104921700Y-142066700D03*
X117848700Y-139526700D03*
G04 #@! TD*
D10*
G04 #@! TO.C,SW64*
X116451700Y-220806700D03*
D11*
X117721700Y-218266700D03*
D12*
X121531700Y-220806700D03*
D11*
X124071700Y-215726700D03*
D10*
X126611700Y-220806700D03*
D13*
X114446700Y-218266700D03*
X127373700Y-215726700D03*
G04 #@! TD*
D10*
G04 #@! TO.C,SW21*
X211701700Y-163656700D03*
D11*
X212971700Y-161116700D03*
D12*
X216781700Y-163656700D03*
D11*
X219321700Y-158576700D03*
D10*
X221861700Y-163656700D03*
D13*
X209696700Y-161116700D03*
X222623700Y-158576700D03*
G04 #@! TD*
D10*
G04 #@! TO.C,SW68*
X235514200Y-220806700D03*
D11*
X236784200Y-218266700D03*
D12*
X240594200Y-220806700D03*
D11*
X243134200Y-215726700D03*
D10*
X245674200Y-220806700D03*
D13*
X233509200Y-218266700D03*
X246436200Y-215726700D03*
G04 #@! TD*
D10*
G04 #@! TO.C,SW75*
X221226700Y-239856700D03*
D11*
X222496700Y-237316700D03*
D12*
X226306700Y-239856700D03*
D11*
X228846700Y-234776700D03*
D10*
X231386700Y-239856700D03*
D13*
X219221700Y-237316700D03*
X232148700Y-234776700D03*
G04 #@! TD*
D10*
G04 #@! TO.C,SW13*
X459351700Y-144606700D03*
D11*
X460621700Y-142066700D03*
D12*
X464431700Y-144606700D03*
D11*
X466971700Y-139526700D03*
D10*
X469511700Y-144606700D03*
D13*
X457346700Y-142066700D03*
X470273700Y-139526700D03*
G04 #@! TD*
D10*
G04 #@! TO.C,SW38*
X216464200Y-182706700D03*
D11*
X217734200Y-180166700D03*
D12*
X221544200Y-182706700D03*
D11*
X224084200Y-177626700D03*
D10*
X226624200Y-182706700D03*
D13*
X214459200Y-180166700D03*
X227386200Y-177626700D03*
G04 #@! TD*
D10*
G04 #@! TO.C,SW29*
X454589200Y-163656700D03*
D11*
X455859200Y-161116700D03*
D12*
X459669200Y-163656700D03*
D11*
X462209200Y-158576700D03*
D10*
X464749200Y-163656700D03*
D13*
X452584200Y-161116700D03*
X465511200Y-158576700D03*
G04 #@! TD*
D10*
G04 #@! TO.C,SW22*
X259326700Y-163656700D03*
D11*
X260596700Y-161116700D03*
D12*
X264406700Y-163656700D03*
D11*
X266946700Y-158576700D03*
D10*
X269486700Y-163656700D03*
D13*
X257321700Y-161116700D03*
X270248700Y-158576700D03*
G04 #@! TD*
D10*
G04 #@! TO.C,SW53*
X206939200Y-201756700D03*
D11*
X208209200Y-199216700D03*
D12*
X212019200Y-201756700D03*
D11*
X214559200Y-196676700D03*
D10*
X217099200Y-201756700D03*
D13*
X204934200Y-199216700D03*
X217861200Y-196676700D03*
G04 #@! TD*
D10*
G04 #@! TO.C,SW57*
X354576700Y-201756700D03*
D11*
X355846700Y-199216700D03*
D12*
X359656700Y-201756700D03*
D11*
X362196700Y-196676700D03*
D10*
X364736700Y-201756700D03*
D13*
X352571700Y-199216700D03*
X365498700Y-196676700D03*
G04 #@! TD*
D10*
G04 #@! TO.C,SW61*
X430776700Y-201756700D03*
D11*
X432046700Y-199216700D03*
D12*
X435856700Y-201756700D03*
D11*
X438396700Y-196676700D03*
D10*
X440936700Y-201756700D03*
D13*
X428771700Y-199216700D03*
X441698700Y-196676700D03*
G04 #@! TD*
D10*
G04 #@! TO.C,SW74*
X202176700Y-239856700D03*
D11*
X203446700Y-237316700D03*
D12*
X207256700Y-239856700D03*
D11*
X209796700Y-234776700D03*
D10*
X212336700Y-239856700D03*
D13*
X200171700Y-237316700D03*
X213098700Y-234776700D03*
G04 #@! TD*
D10*
G04 #@! TO.C,SW60*
X411726700Y-201756700D03*
D11*
X412996700Y-199216700D03*
D12*
X416806700Y-201756700D03*
D11*
X419346700Y-196676700D03*
D10*
X421886700Y-201756700D03*
D13*
X409721700Y-199216700D03*
X422648700Y-196676700D03*
G04 #@! TD*
D10*
G04 #@! TO.C,SW32*
X102164200Y-182706700D03*
D11*
X103434200Y-180166700D03*
D12*
X107244200Y-182706700D03*
D11*
X109784200Y-177626700D03*
D10*
X112324200Y-182706700D03*
D13*
X100159200Y-180166700D03*
X113086200Y-177626700D03*
G04 #@! TD*
D10*
G04 #@! TO.C,SW42*
X383151700Y-182706700D03*
D11*
X384421700Y-180166700D03*
D12*
X388231700Y-182706700D03*
D11*
X390771700Y-177626700D03*
D10*
X393311700Y-182706700D03*
D13*
X381146700Y-180166700D03*
X394073700Y-177626700D03*
G04 #@! TD*
D10*
G04 #@! TO.C,SW49*
X130739200Y-201756700D03*
D11*
X132009200Y-199216700D03*
D12*
X135819200Y-201756700D03*
D11*
X138359200Y-196676700D03*
D10*
X140899200Y-201756700D03*
D13*
X128734200Y-199216700D03*
X141661200Y-196676700D03*
G04 #@! TD*
D10*
G04 #@! TO.C,SW52*
X187889200Y-201756700D03*
D11*
X189159200Y-199216700D03*
D12*
X192969200Y-201756700D03*
D11*
X195509200Y-196676700D03*
D10*
X198049200Y-201756700D03*
D13*
X185884200Y-199216700D03*
X198811200Y-196676700D03*
G04 #@! TD*
D10*
G04 #@! TO.C,SW66*
X197414200Y-220806700D03*
D11*
X198684200Y-218266700D03*
D12*
X202494200Y-220806700D03*
D11*
X205034200Y-215726700D03*
D10*
X207574200Y-220806700D03*
D13*
X195409200Y-218266700D03*
X208336200Y-215726700D03*
G04 #@! TD*
D10*
G04 #@! TO.C,SW18*
X154551700Y-163656700D03*
D11*
X155821700Y-161116700D03*
D12*
X159631700Y-163656700D03*
D11*
X162171700Y-158576700D03*
D10*
X164711700Y-163656700D03*
D13*
X152546700Y-161116700D03*
X165473700Y-158576700D03*
G04 #@! TD*
D10*
G04 #@! TO.C,SW59*
X392676700Y-201756700D03*
D11*
X393946700Y-199216700D03*
D12*
X397756700Y-201756700D03*
D11*
X400296700Y-196676700D03*
D10*
X402836700Y-201756700D03*
D13*
X390671700Y-199216700D03*
X403598700Y-196676700D03*
G04 #@! TD*
D10*
G04 #@! TO.C,SW16*
X116451700Y-163656700D03*
D11*
X117721700Y-161116700D03*
D12*
X121531700Y-163656700D03*
D11*
X124071700Y-158576700D03*
D10*
X126611700Y-163656700D03*
D13*
X114446700Y-161116700D03*
X127373700Y-158576700D03*
G04 #@! TD*
D10*
G04 #@! TO.C,SW31*
X492689200Y-163656700D03*
D11*
X493959200Y-161116700D03*
D12*
X497769200Y-163656700D03*
D11*
X500309200Y-158576700D03*
D10*
X502849200Y-163656700D03*
D13*
X490684200Y-161116700D03*
X503611200Y-158576700D03*
G04 #@! TD*
D10*
G04 #@! TO.C,SW11*
X421251700Y-144606700D03*
D11*
X422521700Y-142066700D03*
D12*
X426331700Y-144606700D03*
D11*
X428871700Y-139526700D03*
D10*
X431411700Y-144606700D03*
D13*
X419246700Y-142066700D03*
X432173700Y-139526700D03*
G04 #@! TD*
D10*
G04 #@! TO.C,SW8*
X364101700Y-144606700D03*
D11*
X365371700Y-142066700D03*
D12*
X369181700Y-144606700D03*
D11*
X371721700Y-139526700D03*
D10*
X374261700Y-144606700D03*
D13*
X362096700Y-142066700D03*
X375023700Y-139526700D03*
G04 #@! TD*
D10*
G04 #@! TO.C,SW4*
X164076700Y-144606700D03*
D11*
X165346700Y-142066700D03*
D12*
X169156700Y-144606700D03*
D11*
X171696700Y-139526700D03*
D10*
X174236700Y-144606700D03*
D13*
X162071700Y-142066700D03*
X174998700Y-139526700D03*
G04 #@! TD*
D10*
G04 #@! TO.C,SW17*
X135501700Y-163656700D03*
D11*
X136771700Y-161116700D03*
D12*
X140581700Y-163656700D03*
D11*
X143121700Y-158576700D03*
D10*
X145661700Y-163656700D03*
D13*
X133496700Y-161116700D03*
X146423700Y-158576700D03*
G04 #@! TD*
D10*
G04 #@! TO.C,SW41*
X364101700Y-182706700D03*
D11*
X365371700Y-180166700D03*
D12*
X369181700Y-182706700D03*
D11*
X371721700Y-177626700D03*
D10*
X374261700Y-182706700D03*
D13*
X362096700Y-180166700D03*
X375023700Y-177626700D03*
G04 #@! TD*
D10*
G04 #@! TO.C,SW10*
X402201700Y-144606700D03*
D11*
X403471700Y-142066700D03*
D12*
X407281700Y-144606700D03*
D11*
X409821700Y-139526700D03*
D10*
X412361700Y-144606700D03*
D13*
X400196700Y-142066700D03*
X413123700Y-139526700D03*
G04 #@! TD*
D10*
G04 #@! TO.C,SW69*
X345051700Y-220806700D03*
D11*
X346321700Y-218266700D03*
D12*
X350131700Y-220806700D03*
D11*
X352671700Y-215726700D03*
D10*
X355211700Y-220806700D03*
D13*
X343046700Y-218266700D03*
X355973700Y-215726700D03*
G04 #@! TD*
D10*
G04 #@! TO.C,SW76*
X240276700Y-239856700D03*
D11*
X241546700Y-237316700D03*
D12*
X245356700Y-239856700D03*
D11*
X247896700Y-234776700D03*
D10*
X250436700Y-239856700D03*
D13*
X238271700Y-237316700D03*
X251198700Y-234776700D03*
G04 #@! TD*
D10*
G04 #@! TO.C,SW15*
X97401700Y-163656700D03*
D11*
X98671700Y-161116700D03*
D12*
X102481700Y-163656700D03*
D11*
X105021700Y-158576700D03*
D10*
X107561700Y-163656700D03*
D13*
X95396700Y-161116700D03*
X108323700Y-158576700D03*
G04 #@! TD*
D10*
G04 #@! TO.C,SW43*
X402201700Y-182706700D03*
D11*
X403471700Y-180166700D03*
D12*
X407281700Y-182706700D03*
D11*
X409821700Y-177626700D03*
D10*
X412361700Y-182706700D03*
D13*
X400196700Y-180166700D03*
X413123700Y-177626700D03*
G04 #@! TD*
D10*
G04 #@! TO.C,SW25*
X378389200Y-163656700D03*
D11*
X379659200Y-161116700D03*
D12*
X383469200Y-163656700D03*
D11*
X386009200Y-158576700D03*
D10*
X388549200Y-163656700D03*
D13*
X376384200Y-161116700D03*
X389311200Y-158576700D03*
G04 #@! TD*
D10*
G04 #@! TO.C,SW78*
X340289200Y-239856700D03*
D11*
X341559200Y-237316700D03*
D12*
X345369200Y-239856700D03*
D11*
X347909200Y-234776700D03*
D10*
X350449200Y-239856700D03*
D13*
X338284200Y-237316700D03*
X351211200Y-234776700D03*
G04 #@! TD*
D10*
G04 #@! TO.C,SW28*
X435539200Y-163656700D03*
D11*
X436809200Y-161116700D03*
D12*
X440619200Y-163656700D03*
D11*
X443159200Y-158576700D03*
D10*
X445699200Y-163656700D03*
D13*
X433534200Y-161116700D03*
X446461200Y-158576700D03*
G04 #@! TD*
D10*
G04 #@! TO.C,SW77*
X290283000Y-239856700D03*
D11*
X291553000Y-237316700D03*
D12*
X295363000Y-239856700D03*
D11*
X297903000Y-234776700D03*
D10*
X300443000Y-239856700D03*
D13*
X288278000Y-237316700D03*
X301205000Y-234776700D03*
G04 #@! TD*
D10*
G04 #@! TO.C,SW14*
X478401700Y-144606700D03*
D11*
X479671700Y-142066700D03*
D12*
X483481700Y-144606700D03*
D11*
X486021700Y-139526700D03*
D10*
X488561700Y-144606700D03*
D13*
X476396700Y-142066700D03*
X489323700Y-139526700D03*
G04 #@! TD*
D10*
G04 #@! TO.C,SW54*
X225989200Y-201756700D03*
D11*
X227259200Y-199216700D03*
D12*
X231069200Y-201756700D03*
D11*
X233609200Y-196676700D03*
D10*
X236149200Y-201756700D03*
D13*
X223984200Y-199216700D03*
X236911200Y-196676700D03*
G04 #@! TD*
D10*
G04 #@! TO.C,SW26*
X397439200Y-163656700D03*
D11*
X398709200Y-161116700D03*
D12*
X402519200Y-163656700D03*
D11*
X405059200Y-158576700D03*
D10*
X407599200Y-163656700D03*
D13*
X395434200Y-161116700D03*
X408361200Y-158576700D03*
G04 #@! TD*
D10*
G04 #@! TO.C,SW80*
X378389200Y-239856700D03*
D11*
X379659200Y-237316700D03*
D12*
X383469200Y-239856700D03*
D11*
X386009200Y-234776700D03*
D10*
X388549200Y-239856700D03*
D13*
X376384200Y-237316700D03*
X389311200Y-234776700D03*
G04 #@! TD*
D10*
G04 #@! TO.C,SW47*
X478401700Y-182706700D03*
D11*
X479671700Y-180166700D03*
D12*
X483481700Y-182706700D03*
D11*
X486021700Y-177626700D03*
D10*
X488561700Y-182706700D03*
D13*
X476396700Y-180166700D03*
X489323700Y-177626700D03*
G04 #@! TD*
D10*
G04 #@! TO.C,SW24*
X359339200Y-163656700D03*
D11*
X360609200Y-161116700D03*
D12*
X364419200Y-163656700D03*
D11*
X366959200Y-158576700D03*
D10*
X369499200Y-163656700D03*
D13*
X357334200Y-161116700D03*
X370261200Y-158576700D03*
G04 #@! TD*
D10*
G04 #@! TO.C,SW46*
X459351700Y-182706700D03*
D11*
X460621700Y-180166700D03*
D12*
X464431700Y-182706700D03*
D11*
X466971700Y-177626700D03*
D10*
X469511700Y-182706700D03*
D13*
X457346700Y-180166700D03*
X470273700Y-177626700D03*
G04 #@! TD*
D10*
G04 #@! TO.C,SW3*
X145026700Y-144606700D03*
D11*
X146296700Y-142066700D03*
D12*
X150106700Y-144606700D03*
D11*
X152646700Y-139526700D03*
D10*
X155186700Y-144606700D03*
D13*
X143021700Y-142066700D03*
X155948700Y-139526700D03*
G04 #@! TD*
D10*
G04 #@! TO.C,SW58*
X373626700Y-201756700D03*
D11*
X374896700Y-199216700D03*
D12*
X378706700Y-201756700D03*
D11*
X381246700Y-196676700D03*
D10*
X383786700Y-201756700D03*
D13*
X371621700Y-199216700D03*
X384548700Y-196676700D03*
G04 #@! TD*
D10*
G04 #@! TO.C,SW51*
X168839200Y-201756700D03*
D11*
X170109200Y-199216700D03*
D12*
X173919200Y-201756700D03*
D11*
X176459200Y-196676700D03*
D10*
X178999200Y-201756700D03*
D13*
X166834200Y-199216700D03*
X179761200Y-196676700D03*
G04 #@! TD*
D10*
G04 #@! TO.C,SW36*
X178364200Y-182706700D03*
D11*
X179634200Y-180166700D03*
D12*
X183444200Y-182706700D03*
D11*
X185984200Y-177626700D03*
D10*
X188524200Y-182706700D03*
D13*
X176359200Y-180166700D03*
X189286200Y-177626700D03*
G04 #@! TD*
D10*
G04 #@! TO.C,SW30*
X473639200Y-163656700D03*
D11*
X474909200Y-161116700D03*
D12*
X478719200Y-163656700D03*
D11*
X481259200Y-158576700D03*
D10*
X483799200Y-163656700D03*
D13*
X471634200Y-161116700D03*
X484561200Y-158576700D03*
G04 #@! TD*
D10*
G04 #@! TO.C,SW34*
X140264200Y-182706700D03*
D11*
X141534200Y-180166700D03*
D12*
X145344200Y-182706700D03*
D11*
X147884200Y-177626700D03*
D10*
X150424200Y-182706700D03*
D13*
X138259200Y-180166700D03*
X151186200Y-177626700D03*
G04 #@! TD*
D10*
G04 #@! TO.C,SW79*
X359339200Y-239856700D03*
D11*
X360609200Y-237316700D03*
D12*
X364419200Y-239856700D03*
D11*
X366959200Y-234776700D03*
D10*
X369499200Y-239856700D03*
D13*
X357334200Y-237316700D03*
X370261200Y-234776700D03*
G04 #@! TD*
D10*
G04 #@! TO.C,SW67*
X216464200Y-220806700D03*
D11*
X217734200Y-218266700D03*
D12*
X221544200Y-220806700D03*
D11*
X224084200Y-215726700D03*
D10*
X226624200Y-220806700D03*
D13*
X214459200Y-218266700D03*
X227386200Y-215726700D03*
G04 #@! TD*
D10*
G04 #@! TO.C,SW7*
X221226700Y-144606700D03*
D11*
X222496700Y-142066700D03*
D12*
X226306700Y-144606700D03*
D11*
X228846700Y-139526700D03*
D10*
X231386700Y-144606700D03*
D13*
X219221700Y-142066700D03*
X232148700Y-139526700D03*
G04 #@! TD*
D10*
G04 #@! TO.C,SW12*
X440301700Y-144606700D03*
D11*
X441571700Y-142066700D03*
D12*
X445381700Y-144606700D03*
D11*
X447921700Y-139526700D03*
D10*
X450461700Y-144606700D03*
D13*
X438296700Y-142066700D03*
X451223700Y-139526700D03*
G04 #@! TD*
D10*
G04 #@! TO.C,SW73*
X464114200Y-220806700D03*
D11*
X465384200Y-218266700D03*
D12*
X469194200Y-220806700D03*
D11*
X471734200Y-215726700D03*
D10*
X474274200Y-220806700D03*
D13*
X462109200Y-218266700D03*
X475036200Y-215726700D03*
G04 #@! TD*
D10*
G04 #@! TO.C,SW2*
X125976700Y-144606700D03*
D11*
X127246700Y-142066700D03*
D12*
X131056700Y-144606700D03*
D11*
X133596700Y-139526700D03*
D10*
X136136700Y-144606700D03*
D13*
X123971700Y-142066700D03*
X136898700Y-139526700D03*
G04 #@! TD*
D10*
G04 #@! TO.C,SW33*
X121214200Y-182706700D03*
D11*
X122484200Y-180166700D03*
D12*
X126294200Y-182706700D03*
D11*
X128834200Y-177626700D03*
D10*
X131374200Y-182706700D03*
D13*
X119209200Y-180166700D03*
X132136200Y-177626700D03*
G04 #@! TD*
D10*
G04 #@! TO.C,SW23*
X321239200Y-163656700D03*
D11*
X322509200Y-161116700D03*
D12*
X326319200Y-163656700D03*
D11*
X328859200Y-158576700D03*
D10*
X331399200Y-163656700D03*
D13*
X319234200Y-161116700D03*
X332161200Y-158576700D03*
G04 #@! TD*
D10*
G04 #@! TO.C,SW20*
X192651700Y-163656700D03*
D11*
X193921700Y-161116700D03*
D12*
X197731700Y-163656700D03*
D11*
X200271700Y-158576700D03*
D10*
X202811700Y-163656700D03*
D13*
X190646700Y-161116700D03*
X203573700Y-158576700D03*
G04 #@! TD*
D10*
G04 #@! TO.C,SW44*
X421251700Y-182706700D03*
D11*
X422521700Y-180166700D03*
D12*
X426331700Y-182706700D03*
D11*
X428871700Y-177626700D03*
D10*
X431411700Y-182706700D03*
D13*
X419246700Y-180166700D03*
X432173700Y-177626700D03*
G04 #@! TD*
D10*
G04 #@! TO.C,SW55*
X259326700Y-201756700D03*
D11*
X260596700Y-199216700D03*
D12*
X264406700Y-201756700D03*
D11*
X266946700Y-196676700D03*
D10*
X269486700Y-201756700D03*
D13*
X257321700Y-199216700D03*
X270248700Y-196676700D03*
G04 #@! TD*
D10*
G04 #@! TO.C,SW9*
X383151700Y-144606700D03*
D11*
X384421700Y-142066700D03*
D12*
X388231700Y-144606700D03*
D11*
X390771700Y-139526700D03*
D10*
X393311700Y-144606700D03*
D13*
X381146700Y-142066700D03*
X394073700Y-139526700D03*
G04 #@! TD*
D10*
G04 #@! TO.C,SW48*
X111689200Y-201756700D03*
D11*
X112959200Y-199216700D03*
D12*
X116769200Y-201756700D03*
D11*
X119309200Y-196676700D03*
D10*
X121849200Y-201756700D03*
D13*
X109684200Y-199216700D03*
X122611200Y-196676700D03*
G04 #@! TD*
D10*
G04 #@! TO.C,SW19*
X173601700Y-163656700D03*
D11*
X174871700Y-161116700D03*
D12*
X178681700Y-163656700D03*
D11*
X181221700Y-158576700D03*
D10*
X183761700Y-163656700D03*
D13*
X171596700Y-161116700D03*
X184523700Y-158576700D03*
G04 #@! TD*
D10*
G04 #@! TO.C,SW35*
X159314200Y-182706700D03*
D11*
X160584200Y-180166700D03*
D12*
X164394200Y-182706700D03*
D11*
X166934200Y-177626700D03*
D10*
X169474200Y-182706700D03*
D13*
X157309200Y-180166700D03*
X170236200Y-177626700D03*
G04 #@! TD*
D10*
G04 #@! TO.C,SW5*
X183126700Y-144606700D03*
D11*
X184396700Y-142066700D03*
D12*
X188206700Y-144606700D03*
D11*
X190746700Y-139526700D03*
D10*
X193286700Y-144606700D03*
D13*
X181121700Y-142066700D03*
X194048700Y-139526700D03*
G04 #@! TD*
D10*
G04 #@! TO.C,SW62*
X449826700Y-201756700D03*
D11*
X451096700Y-199216700D03*
D12*
X454906700Y-201756700D03*
D11*
X457446700Y-196676700D03*
D10*
X459986700Y-201756700D03*
D13*
X447821700Y-199216700D03*
X460748700Y-196676700D03*
G04 #@! TD*
D14*
G04 #@! TO.C,D63*
X479036700Y-207156700D03*
X479036700Y-204356700D03*
G04 #@! TD*
G04 #@! TO.C,D47*
X488561700Y-188106700D03*
X488561700Y-185306700D03*
G04 #@! TD*
G04 #@! TO.C,D53*
X217099200Y-207156700D03*
X217099200Y-204356700D03*
G04 #@! TD*
G04 #@! TO.C,D40*
X331399200Y-188106700D03*
X331399200Y-185306700D03*
G04 #@! TD*
G04 #@! TO.C,D76*
X250436700Y-245256700D03*
X250436700Y-242456700D03*
G04 #@! TD*
G04 #@! TO.C,D75*
X231386700Y-245256700D03*
X231386700Y-242456700D03*
G04 #@! TD*
G04 #@! TO.C,D64*
X126611700Y-226206700D03*
X126611700Y-223406700D03*
G04 #@! TD*
G04 #@! TO.C,D69*
X355211700Y-226206700D03*
X355211700Y-223406700D03*
G04 #@! TD*
G04 #@! TO.C,D38*
X226624200Y-188106700D03*
X226624200Y-185306700D03*
G04 #@! TD*
G04 #@! TO.C,D14*
X488561700Y-150006700D03*
X488561700Y-147206700D03*
G04 #@! TD*
G04 #@! TO.C,D26*
X407599200Y-169056700D03*
X407599200Y-166256700D03*
G04 #@! TD*
G04 #@! TO.C,D6*
X212336700Y-150006700D03*
X212336700Y-147206700D03*
G04 #@! TD*
G04 #@! TO.C,D15*
X107561700Y-169056700D03*
X107561700Y-166256700D03*
G04 #@! TD*
G04 #@! TO.C,D8*
X374261700Y-150006700D03*
X374261700Y-147206700D03*
G04 #@! TD*
G04 #@! TO.C,D61*
X440936700Y-207156700D03*
X440936700Y-204356700D03*
G04 #@! TD*
G04 #@! TO.C,D72*
X455224200Y-226206700D03*
X455224200Y-223406700D03*
G04 #@! TD*
G04 #@! TO.C,D62*
X459986700Y-207156700D03*
X459986700Y-204356700D03*
G04 #@! TD*
G04 #@! TO.C,D70*
X374261700Y-226206700D03*
X374261700Y-223406700D03*
G04 #@! TD*
G04 #@! TO.C,D2*
X136136700Y-150006700D03*
X136136700Y-147206700D03*
G04 #@! TD*
G04 #@! TO.C,D44*
X431411700Y-188106700D03*
X431411700Y-185306700D03*
G04 #@! TD*
G04 #@! TO.C,D60*
X421886700Y-207156700D03*
X421886700Y-204356700D03*
G04 #@! TD*
G04 #@! TO.C,D21*
X221861700Y-169056700D03*
X221861700Y-166256700D03*
G04 #@! TD*
G04 #@! TO.C,D68*
X245674200Y-226206700D03*
X245674200Y-223406700D03*
G04 #@! TD*
G04 #@! TO.C,D24*
X369499200Y-169056700D03*
X369499200Y-166256700D03*
G04 #@! TD*
G04 #@! TO.C,D30*
X483799200Y-169056700D03*
X483799200Y-166256700D03*
G04 #@! TD*
G04 #@! TO.C,D39*
X269486700Y-188106700D03*
X269486700Y-185306700D03*
G04 #@! TD*
G04 #@! TO.C,D55*
X269486700Y-207156700D03*
X269486700Y-204356700D03*
G04 #@! TD*
G04 #@! TO.C,D29*
X464749200Y-169056700D03*
X464749200Y-166256700D03*
G04 #@! TD*
G04 #@! TO.C,D71*
X393311700Y-226206700D03*
X393311700Y-223406700D03*
G04 #@! TD*
G04 #@! TO.C,D34*
X150424200Y-188106700D03*
X150424200Y-185306700D03*
G04 #@! TD*
G04 #@! TO.C,D35*
X169474200Y-188106700D03*
X169474200Y-185306700D03*
G04 #@! TD*
G04 #@! TO.C,D16*
X126611700Y-169056700D03*
X126611700Y-166256700D03*
G04 #@! TD*
G04 #@! TO.C,D9*
X393311700Y-150006700D03*
X393311700Y-147206700D03*
G04 #@! TD*
G04 #@! TO.C,D67*
X226624200Y-226206700D03*
X226624200Y-223406700D03*
G04 #@! TD*
G04 #@! TO.C,D18*
X164711700Y-169056700D03*
X164711700Y-166256700D03*
G04 #@! TD*
G04 #@! TO.C,D33*
X131374200Y-188106700D03*
X131374200Y-185306700D03*
G04 #@! TD*
G04 #@! TO.C,D79*
X369499200Y-245256700D03*
X369499200Y-242456700D03*
G04 #@! TD*
G04 #@! TO.C,D78*
X350449200Y-245256700D03*
X350449200Y-242456700D03*
G04 #@! TD*
G04 #@! TO.C,D25*
X388549200Y-169056700D03*
X388549200Y-166256700D03*
G04 #@! TD*
G04 #@! TO.C,D54*
X236149200Y-207156700D03*
X236149200Y-204356700D03*
G04 #@! TD*
G04 #@! TO.C,D41*
X374261700Y-188106700D03*
X374261700Y-185306700D03*
G04 #@! TD*
G04 #@! TO.C,D32*
X112324200Y-188106700D03*
X112324200Y-185306700D03*
G04 #@! TD*
G04 #@! TO.C,D65*
X145661700Y-226206700D03*
X145661700Y-223406700D03*
G04 #@! TD*
G04 #@! TO.C,D22*
X269486700Y-169056700D03*
X269486700Y-166256700D03*
G04 #@! TD*
G04 #@! TO.C,D77*
X300443000Y-245256700D03*
X300443000Y-242456700D03*
G04 #@! TD*
G04 #@! TO.C,D36*
X188524200Y-188106700D03*
X188524200Y-185306700D03*
G04 #@! TD*
G04 #@! TO.C,D73*
X474274200Y-226206700D03*
X474274200Y-223406700D03*
G04 #@! TD*
G04 #@! TO.C,D50*
X159949200Y-207156700D03*
X159949200Y-204356700D03*
G04 #@! TD*
G04 #@! TO.C,D5*
X193286700Y-150006700D03*
X193286700Y-147206700D03*
G04 #@! TD*
G04 #@! TO.C,D49*
X140899200Y-207156700D03*
X140899200Y-204356700D03*
G04 #@! TD*
G04 #@! TO.C,D19*
X183761700Y-169056700D03*
X183761700Y-166256700D03*
G04 #@! TD*
G04 #@! TO.C,D37*
X207574200Y-188106700D03*
X207574200Y-185306700D03*
G04 #@! TD*
G04 #@! TO.C,D59*
X402836700Y-207156700D03*
X402836700Y-204356700D03*
G04 #@! TD*
G04 #@! TO.C,D4*
X174236700Y-150006700D03*
X174236700Y-147206700D03*
G04 #@! TD*
G04 #@! TO.C,D48*
X121849200Y-207156700D03*
X121849200Y-204356700D03*
G04 #@! TD*
G04 #@! TO.C,D43*
X412361700Y-188106700D03*
X412361700Y-185306700D03*
G04 #@! TD*
G04 #@! TO.C,D12*
X450461700Y-150006700D03*
X450461700Y-147206700D03*
G04 #@! TD*
G04 #@! TO.C,D28*
X445699200Y-169056700D03*
X445699200Y-166256700D03*
G04 #@! TD*
G04 #@! TO.C,D52*
X198049200Y-207156700D03*
X198049200Y-204356700D03*
G04 #@! TD*
G04 #@! TO.C,D13*
X469511700Y-150006700D03*
X469511700Y-147206700D03*
G04 #@! TD*
G04 #@! TO.C,D11*
X431411700Y-150006700D03*
X431411700Y-147206700D03*
G04 #@! TD*
G04 #@! TO.C,D74*
X212336700Y-245256700D03*
X212336700Y-242456700D03*
G04 #@! TD*
G04 #@! TO.C,D17*
X145661700Y-169056700D03*
X145661700Y-166256700D03*
G04 #@! TD*
G04 #@! TO.C,D66*
X207574200Y-226206700D03*
X207574200Y-223406700D03*
G04 #@! TD*
G04 #@! TO.C,D7*
X231386700Y-150006700D03*
X231386700Y-147206700D03*
G04 #@! TD*
G04 #@! TO.C,D51*
X178999200Y-207156700D03*
X178999200Y-204356700D03*
G04 #@! TD*
G04 #@! TO.C,D42*
X393311700Y-188106700D03*
X393311700Y-185306700D03*
G04 #@! TD*
G04 #@! TO.C,D3*
X155186700Y-150006700D03*
X155186700Y-147206700D03*
G04 #@! TD*
G04 #@! TO.C,D58*
X383786700Y-207156700D03*
X383786700Y-204356700D03*
G04 #@! TD*
G04 #@! TO.C,D46*
X469511700Y-188106700D03*
X469511700Y-185306700D03*
G04 #@! TD*
G04 #@! TO.C,D10*
X412361700Y-150006700D03*
X412361700Y-147206700D03*
G04 #@! TD*
G04 #@! TO.C,D31*
X502849200Y-169056700D03*
X502849200Y-166256700D03*
G04 #@! TD*
G04 #@! TO.C,D57*
X364736700Y-207156700D03*
X364736700Y-204356700D03*
G04 #@! TD*
G04 #@! TO.C,D1*
X117086700Y-150006700D03*
X117086700Y-147206700D03*
G04 #@! TD*
G04 #@! TO.C,D27*
X426649200Y-169056700D03*
X426649200Y-166256700D03*
G04 #@! TD*
G04 #@! TO.C,D45*
X450461700Y-188106700D03*
X450461700Y-185306700D03*
G04 #@! TD*
G04 #@! TO.C,D80*
X388549200Y-245256700D03*
X388549200Y-242456700D03*
G04 #@! TD*
G04 #@! TO.C,D20*
X202811700Y-169056700D03*
X202811700Y-166256700D03*
G04 #@! TD*
G04 #@! TO.C,D23*
X331399200Y-169056700D03*
X331399200Y-166256700D03*
G04 #@! TD*
G04 #@! TO.C,D56*
X331399200Y-207156700D03*
X331399200Y-204356700D03*
G04 #@! TD*
M02*
