G04 #@! TF.GenerationSoftware,KiCad,Pcbnew,8.0.9*
G04 #@! TF.CreationDate,2025-09-25T17:38:48-07:00*
G04 #@! TF.ProjectId,keyboard,6b657962-6f61-4726-942e-6b696361645f,v0.0.0-alpha*
G04 #@! TF.SameCoordinates,Original*
G04 #@! TF.FileFunction,Profile,NP*
%FSLAX46Y46*%
G04 Gerber Fmt 4.6, Leading zero omitted, Abs format (unit mm)*
G04 Created by KiCad (PCBNEW 8.0.9) date 2025-09-25 17:38:48*
%MOMM*%
%LPD*%
G01*
G04 APERTURE LIST*
G04 #@! TA.AperFunction,Profile*
%ADD10C,0.400000*%
G04 #@! TD*
G04 APERTURE END LIST*
D10*
X493499144Y-129777612D02*
X493499144Y-130027612D01*
X393267816Y-254435852D02*
X335362957Y-254435852D01*
X79205082Y-151344605D02*
X78894152Y-151890063D01*
X197458098Y-254435852D02*
X255362957Y-254435852D01*
X480016332Y-235219571D02*
X393811766Y-254376141D01*
X78894152Y-151890063D02*
X78762284Y-152208429D01*
X94084298Y-131505650D02*
X79205082Y-151344605D01*
X482825914Y-233413464D02*
X481504829Y-234643982D01*
X78377587Y-173674169D02*
X78569719Y-174640121D01*
X511917948Y-175215325D02*
X511844284Y-175376726D01*
X78377587Y-153639295D02*
X78377587Y-173674169D01*
X110294451Y-235088570D02*
X110709582Y-235219571D01*
X493499144Y-129777612D02*
X335250000Y-129750000D01*
X511831762Y-151890063D02*
X511963630Y-152208429D01*
X335362957Y-254435852D02*
X255362957Y-254435852D01*
X512348327Y-153639295D02*
X512348327Y-173674169D01*
X335250000Y-129750000D02*
X255375482Y-129875000D01*
X78762284Y-175105035D02*
X78807966Y-175215325D01*
X95795904Y-130412309D02*
X95146475Y-130681303D01*
X481504829Y-234643982D02*
X480642510Y-235001155D01*
X78569719Y-174640121D02*
X78762284Y-175105035D01*
X494930010Y-130412309D02*
X495579439Y-130681303D01*
X78881630Y-175376726D02*
X107900000Y-233413464D01*
X511963630Y-152208429D02*
X512156195Y-152673343D01*
X480431463Y-235088570D02*
X480016332Y-235219571D01*
X511520832Y-151344605D02*
X511831762Y-151890063D01*
X495579439Y-130681303D02*
X496641616Y-131505650D01*
X110083404Y-235001155D02*
X110294451Y-235088570D01*
X95146475Y-130681303D02*
X94084298Y-131505650D01*
X512348327Y-173674169D02*
X512156195Y-174640121D01*
X96260818Y-130219744D02*
X95795904Y-130412309D01*
X393811766Y-254376141D02*
X393267816Y-254435852D01*
X493499144Y-130027612D02*
X494465096Y-130219744D01*
X97226770Y-130027612D02*
X255375482Y-129875000D01*
X110709582Y-235219571D02*
X196914148Y-254376141D01*
X512156195Y-174640121D02*
X511963630Y-175105035D01*
X109221085Y-234643982D02*
X110083404Y-235001155D01*
X480642510Y-235001155D02*
X480431463Y-235088570D01*
X512156195Y-152673343D02*
X512348327Y-153639295D01*
X511844284Y-175376726D02*
X482825914Y-233413464D01*
X496641616Y-131505650D02*
X511520832Y-151344605D01*
X78762284Y-152208429D02*
X78569719Y-152673343D01*
X511963630Y-175105035D02*
X511917948Y-175215325D01*
X78569719Y-152673343D02*
X78377587Y-153639295D01*
X494465096Y-130219744D02*
X494930010Y-130412309D01*
X78807966Y-175215325D02*
X78881630Y-175376726D01*
X97226770Y-130027612D02*
X96260818Y-130219744D01*
X196914148Y-254376141D02*
X197458098Y-254435852D01*
X107900000Y-233413464D02*
X109221085Y-234643982D01*
M02*
