%TF.GenerationSoftware,KiCad,Pcbnew,8.0.9*%
%TF.CreationDate,2025-09-25T17:38:48-07:00*%
%TF.ProjectId,keyboard,6b657962-6f61-4726-942e-6b696361645f,v0.0.0-alpha*%
%TF.SameCoordinates,Original*%
%TF.FileFunction,Drillmap*%
%TF.FilePolarity,Positive*%
%FSLAX45Y45*%
G04 Gerber Fmt 4.5, Leading zero omitted, Abs format (unit mm)*
G04 Created by KiCad (PCBNEW 8.0.9) date 2025-09-25 17:38:48*
%MOMM*%
%LPD*%
G01*
G04 APERTURE LIST*
%ADD10C,0.400000*%
%ADD11C,0.200000*%
%ADD12C,0.100000*%
G04 APERTURE END LIST*
D10*
X49349914Y-12977761D02*
X49349914Y-13002761D01*
X39326782Y-25443585D02*
X33536296Y-25443585D01*
X7920508Y-15134460D02*
X7889415Y-15189006D01*
X19745810Y-25443585D02*
X25536296Y-25443585D01*
X48001633Y-23521957D02*
X39381177Y-25437614D01*
X7889415Y-15189006D02*
X7876228Y-15220843D01*
X9408430Y-13150565D02*
X7920508Y-15134460D01*
X48282591Y-23341346D02*
X48150483Y-23464398D01*
X7837759Y-17367417D02*
X7856972Y-17464012D01*
X51191795Y-17521533D02*
X51184428Y-17537673D01*
X7837759Y-15363929D02*
X7837759Y-17367417D01*
X11029445Y-23508857D02*
X11070958Y-23521957D01*
X49349914Y-12977761D02*
X33525000Y-12975000D01*
X51183176Y-15189006D02*
X51196363Y-15220843D01*
X33536296Y-25443585D02*
X25536296Y-25443585D01*
X51234833Y-15363929D02*
X51234833Y-17367417D01*
X33525000Y-12975000D02*
X25537548Y-12987500D01*
X7876228Y-17510504D02*
X7880797Y-17521533D01*
X9579590Y-13041231D02*
X9514648Y-13068130D01*
X48150483Y-23464398D02*
X48064251Y-23500115D01*
X7856972Y-17464012D02*
X7876228Y-17510504D01*
X49493001Y-13041231D02*
X49557944Y-13068130D01*
X7888163Y-17537673D02*
X10790000Y-23341346D01*
X51196363Y-15220843D02*
X51215619Y-15267334D01*
X48043146Y-23508857D02*
X48001633Y-23521957D01*
X51152083Y-15134460D02*
X51183176Y-15189006D01*
X49557944Y-13068130D02*
X49664162Y-13150565D01*
X11008340Y-23500115D02*
X11029445Y-23508857D01*
X9514648Y-13068130D02*
X9408430Y-13150565D01*
X51234833Y-17367417D02*
X51215619Y-17464012D01*
X9626082Y-13021974D02*
X9579590Y-13041231D01*
X39381177Y-25437614D02*
X39326782Y-25443585D01*
X49349914Y-13002761D02*
X49446510Y-13021974D01*
X9722677Y-13002761D02*
X25537548Y-12987500D01*
X11070958Y-23521957D02*
X19691415Y-25437614D01*
X51215619Y-17464012D02*
X51196363Y-17510504D01*
X10922109Y-23464398D02*
X11008340Y-23500115D01*
X48064251Y-23500115D02*
X48043146Y-23508857D01*
X51215619Y-15267334D02*
X51234833Y-15363929D01*
X51184428Y-17537673D02*
X48282591Y-23341346D01*
X49664162Y-13150565D02*
X51152083Y-15134460D01*
X7876228Y-15220843D02*
X7856972Y-15267334D01*
X51196363Y-17510504D02*
X51191795Y-17521533D01*
X7856972Y-15267334D02*
X7837759Y-15363929D01*
X49446510Y-13021974D02*
X49493001Y-13041231D01*
X7880797Y-17521533D02*
X7888163Y-17537673D01*
X9722677Y-13002761D02*
X9626082Y-13021974D01*
X19691415Y-25437614D02*
X19745810Y-25443585D01*
X10790000Y-23341346D02*
X10922109Y-23464398D01*
D11*
D12*
X9524670Y-16096670D02*
X9554670Y-16126670D01*
X9554670Y-16096670D02*
X9524670Y-16126670D01*
X10741170Y-16890670D02*
X10771170Y-16920670D01*
X10771170Y-16890670D02*
X10741170Y-16920670D01*
X11217420Y-18795670D02*
X11247420Y-18825670D01*
X11247420Y-18795670D02*
X11217420Y-18825670D01*
X11429670Y-16097500D02*
X11459670Y-16127500D01*
X11459670Y-16097500D02*
X11429670Y-16127500D01*
X11693670Y-14985670D02*
X11723670Y-15015670D01*
X11723670Y-14985670D02*
X11693670Y-15015670D01*
X12169920Y-20700670D02*
X12199920Y-20730670D01*
X12199920Y-20700670D02*
X12169920Y-20730670D01*
X12646170Y-16890670D02*
X12676170Y-16920670D01*
X12676170Y-16890670D02*
X12646170Y-16920670D01*
X12646170Y-22605670D02*
X12676170Y-22635670D01*
X12676170Y-22605670D02*
X12646170Y-22635670D01*
X13122420Y-18795670D02*
X13152420Y-18825670D01*
X13152420Y-18795670D02*
X13122420Y-18825670D01*
X13598670Y-14985670D02*
X13628670Y-15015670D01*
X13628670Y-14985670D02*
X13598670Y-15015670D01*
X13810920Y-18001670D02*
X13840920Y-18031670D01*
X13840920Y-18001670D02*
X13810920Y-18031670D01*
X14074920Y-20700670D02*
X14104920Y-20730670D01*
X14104920Y-20700670D02*
X14074920Y-20730670D01*
X14551170Y-16890670D02*
X14581170Y-16920670D01*
X14581170Y-16890670D02*
X14551170Y-16920670D01*
X14551170Y-22605670D02*
X14581170Y-22635670D01*
X14581170Y-22605670D02*
X14551170Y-22635670D01*
X15027420Y-18795670D02*
X15057420Y-18825670D01*
X15057420Y-18795670D02*
X15027420Y-18825670D01*
X15503670Y-14985670D02*
X15533670Y-15015670D01*
X15533670Y-14985670D02*
X15503670Y-15015670D01*
X15722500Y-17997500D02*
X15752500Y-18027500D01*
X15752500Y-17997500D02*
X15722500Y-18027500D01*
X15979920Y-20700670D02*
X16009920Y-20730670D01*
X16009920Y-20700670D02*
X15979920Y-20730670D01*
X16456170Y-16890670D02*
X16486170Y-16920670D01*
X16486170Y-16890670D02*
X16456170Y-16920670D01*
X16932420Y-18795670D02*
X16962420Y-18825670D01*
X16962420Y-18795670D02*
X16932420Y-18825670D01*
X17408670Y-14985670D02*
X17438670Y-15015670D01*
X17438670Y-14985670D02*
X17408670Y-15015670D01*
X17628750Y-18016250D02*
X17658750Y-18046250D01*
X17658750Y-18016250D02*
X17628750Y-18046250D01*
X17884920Y-20700670D02*
X17914920Y-20730670D01*
X17914920Y-20700670D02*
X17884920Y-20730670D01*
X18361170Y-16890670D02*
X18391170Y-16920670D01*
X18391170Y-16890670D02*
X18361170Y-16920670D01*
X18837420Y-18795670D02*
X18867420Y-18825670D01*
X18867420Y-18795670D02*
X18837420Y-18825670D01*
X19313670Y-14985670D02*
X19343670Y-15015670D01*
X19343670Y-14985670D02*
X19313670Y-15015670D01*
X19535000Y-18010000D02*
X19565000Y-18040000D01*
X19565000Y-18010000D02*
X19535000Y-18040000D01*
X19789920Y-20700670D02*
X19819920Y-20730670D01*
X19819920Y-20700670D02*
X19789920Y-20730670D01*
X20272500Y-16890670D02*
X20302500Y-16920670D01*
X20302500Y-16890670D02*
X20272500Y-16920670D01*
X20742420Y-18795670D02*
X20772420Y-18825670D01*
X20772420Y-18795670D02*
X20742420Y-18825670D01*
X20742420Y-22605670D02*
X20772420Y-22635670D01*
X20772420Y-22605670D02*
X20742420Y-22635670D01*
X21218670Y-14985670D02*
X21248670Y-15015670D01*
X21248670Y-14985670D02*
X21218670Y-15015670D01*
X21218670Y-24510670D02*
X21248670Y-24540670D01*
X21248670Y-24510670D02*
X21218670Y-24540670D01*
X21430920Y-18001670D02*
X21460920Y-18031670D01*
X21460920Y-18001670D02*
X21430920Y-18031670D01*
X21694920Y-20700670D02*
X21724920Y-20730670D01*
X21724920Y-20700670D02*
X21694920Y-20730670D01*
X22172500Y-16890670D02*
X22202500Y-16920670D01*
X22202500Y-16890670D02*
X22172500Y-16920670D01*
X22383420Y-19910000D02*
X22413420Y-19940000D01*
X22413420Y-19910000D02*
X22383420Y-19940000D01*
X22647420Y-18795670D02*
X22677420Y-18825670D01*
X22677420Y-18795670D02*
X22647420Y-18825670D01*
X22647420Y-22605670D02*
X22677420Y-22635670D01*
X22677420Y-22605670D02*
X22647420Y-22635670D01*
X23123670Y-14985670D02*
X23153670Y-15015670D01*
X23153670Y-14985670D02*
X23123670Y-15015670D01*
X23123670Y-24510670D02*
X23153670Y-24540670D01*
X23153670Y-24510670D02*
X23123670Y-24540670D01*
X23599920Y-20700670D02*
X23629920Y-20730670D01*
X23629920Y-20700670D02*
X23599920Y-20730670D01*
X23812170Y-23716670D02*
X23842170Y-23746670D01*
X23842170Y-23716670D02*
X23812170Y-23746670D01*
X24547500Y-22605670D02*
X24577500Y-22635670D01*
X24577500Y-22605670D02*
X24547500Y-22635670D01*
X25028670Y-24510670D02*
X25058670Y-24540670D01*
X25058670Y-24510670D02*
X25028670Y-24540670D01*
X25722500Y-18010000D02*
X25752500Y-18040000D01*
X25752500Y-18010000D02*
X25722500Y-18040000D01*
X26933670Y-16890670D02*
X26963670Y-16920670D01*
X26963670Y-16890670D02*
X26933670Y-16920670D01*
X26933670Y-18795670D02*
X26963670Y-18825670D01*
X26963670Y-18795670D02*
X26933670Y-18825670D01*
X26935000Y-20700670D02*
X26965000Y-20730670D01*
X26965000Y-20700670D02*
X26935000Y-20730670D01*
X28547500Y-16890670D02*
X28577500Y-16920670D01*
X28577500Y-16890670D02*
X28547500Y-16920670D01*
X28553500Y-16636500D02*
X28583500Y-16666500D01*
X28583500Y-16636500D02*
X28553500Y-16666500D01*
X28553500Y-17144500D02*
X28583500Y-17174500D01*
X28583500Y-17144500D02*
X28553500Y-17174500D01*
X28553500Y-17398500D02*
X28583500Y-17428500D01*
X28583500Y-17398500D02*
X28553500Y-17428500D01*
X28553500Y-17906500D02*
X28583500Y-17936500D01*
X28583500Y-17906500D02*
X28553500Y-17936500D01*
X28553500Y-18160500D02*
X28583500Y-18190500D01*
X28583500Y-18160500D02*
X28553500Y-18190500D01*
X30029300Y-24510670D02*
X30059300Y-24540670D01*
X30059300Y-24510670D02*
X30029300Y-24540670D01*
X31908420Y-17997500D02*
X31938420Y-18027500D01*
X31938420Y-17997500D02*
X31908420Y-18027500D01*
X33124920Y-16890670D02*
X33154920Y-16920670D01*
X33154920Y-16890670D02*
X33124920Y-16920670D01*
X33124920Y-18795670D02*
X33154920Y-18825670D01*
X33154920Y-18795670D02*
X33124920Y-18825670D01*
X33124920Y-20700670D02*
X33154920Y-20730670D01*
X33154920Y-20700670D02*
X33124920Y-20730670D01*
X34288170Y-21813170D02*
X34318170Y-21843170D01*
X34318170Y-21813170D02*
X34288170Y-21843170D01*
X35029920Y-24510670D02*
X35059920Y-24540670D01*
X35059920Y-24510670D02*
X35029920Y-24540670D01*
X35506170Y-22605670D02*
X35536170Y-22635670D01*
X35536170Y-22605670D02*
X35506170Y-22635670D01*
X36194000Y-18001000D02*
X36224000Y-18031000D01*
X36224000Y-18001000D02*
X36194000Y-18031000D01*
X36458670Y-20700670D02*
X36488670Y-20730670D01*
X36488670Y-20700670D02*
X36458670Y-20730670D01*
X36934920Y-16890670D02*
X36964920Y-16920670D01*
X36964920Y-16890670D02*
X36934920Y-16920670D01*
X36934920Y-24510670D02*
X36964920Y-24540670D01*
X36964920Y-24510670D02*
X36934920Y-24540670D01*
X37411170Y-14985670D02*
X37441170Y-15015670D01*
X37441170Y-14985670D02*
X37411170Y-15015670D01*
X37411170Y-18795670D02*
X37441170Y-18825670D01*
X37441170Y-18795670D02*
X37411170Y-18825670D01*
X37411170Y-22605670D02*
X37441170Y-22635670D01*
X37441170Y-22605670D02*
X37411170Y-22635670D01*
X37623420Y-16110000D02*
X37653420Y-16140000D01*
X37653420Y-16110000D02*
X37623420Y-16140000D01*
X38363670Y-20700670D02*
X38393670Y-20730670D01*
X38393670Y-20700670D02*
X38363670Y-20730670D01*
X38839920Y-16890670D02*
X38869920Y-16920670D01*
X38869920Y-16890670D02*
X38839920Y-16920670D01*
X38839920Y-24510670D02*
X38869920Y-24540670D01*
X38869920Y-24510670D02*
X38839920Y-24540670D01*
X39316170Y-14985670D02*
X39346170Y-15015670D01*
X39346170Y-14985670D02*
X39316170Y-15015670D01*
X39316170Y-18795670D02*
X39346170Y-18825670D01*
X39346170Y-18795670D02*
X39316170Y-18825670D01*
X39316170Y-22605670D02*
X39346170Y-22635670D01*
X39346170Y-22605670D02*
X39316170Y-22635670D01*
X39528420Y-16097500D02*
X39558420Y-16127500D01*
X39558420Y-16097500D02*
X39528420Y-16127500D01*
X40268670Y-20700670D02*
X40298670Y-20730670D01*
X40298670Y-20700670D02*
X40268670Y-20730670D01*
X40744920Y-16890670D02*
X40774920Y-16920670D01*
X40774920Y-16890670D02*
X40744920Y-16920670D01*
X41221170Y-14985670D02*
X41251170Y-15015670D01*
X41251170Y-14985670D02*
X41221170Y-15015670D01*
X41221170Y-18795670D02*
X41251170Y-18825670D01*
X41251170Y-18795670D02*
X41221170Y-18825670D01*
X41422500Y-16085000D02*
X41452500Y-16115000D01*
X41452500Y-16085000D02*
X41422500Y-16115000D01*
X42173670Y-20700670D02*
X42203670Y-20730670D01*
X42203670Y-20700670D02*
X42173670Y-20730670D01*
X42649920Y-16890670D02*
X42679920Y-16920670D01*
X42679920Y-16890670D02*
X42649920Y-16920670D01*
X43126170Y-14985670D02*
X43156170Y-15015670D01*
X43156170Y-14985670D02*
X43126170Y-15015670D01*
X43126170Y-18795670D02*
X43156170Y-18825670D01*
X43156170Y-18795670D02*
X43126170Y-18825670D01*
X43814670Y-14191670D02*
X43844670Y-14221670D01*
X43844670Y-14191670D02*
X43814670Y-14221670D01*
X44078670Y-20700670D02*
X44108670Y-20730670D01*
X44108670Y-20700670D02*
X44078670Y-20730670D01*
X44554920Y-16890670D02*
X44584920Y-16920670D01*
X44584920Y-16890670D02*
X44554920Y-16920670D01*
X45031170Y-14985670D02*
X45061170Y-15015670D01*
X45061170Y-14985670D02*
X45031170Y-15015670D01*
X45031170Y-18795670D02*
X45061170Y-18825670D01*
X45061170Y-18795670D02*
X45031170Y-18825670D01*
X45507420Y-22605670D02*
X45537420Y-22635670D01*
X45537420Y-22605670D02*
X45507420Y-22635670D01*
X45719670Y-14191670D02*
X45749670Y-14221670D01*
X45749670Y-14191670D02*
X45719670Y-14221670D01*
X45983670Y-20700670D02*
X46013670Y-20730670D01*
X46013670Y-20700670D02*
X45983670Y-20730670D01*
X46459920Y-16890670D02*
X46489920Y-16920670D01*
X46489920Y-16890670D02*
X46459920Y-16920670D01*
X46936170Y-14985670D02*
X46966170Y-15015670D01*
X46966170Y-14985670D02*
X46936170Y-15015670D01*
X46936170Y-18795670D02*
X46966170Y-18825670D01*
X46966170Y-18795670D02*
X46936170Y-18825670D01*
X47412420Y-22605670D02*
X47442420Y-22635670D01*
X47442420Y-22605670D02*
X47412420Y-22635670D01*
X47624670Y-14191670D02*
X47654670Y-14221670D01*
X47654670Y-14191670D02*
X47624670Y-14221670D01*
X47888670Y-20700670D02*
X47918670Y-20730670D01*
X47918670Y-20700670D02*
X47888670Y-20730670D01*
X48364920Y-16890670D02*
X48394920Y-16920670D01*
X48394920Y-16890670D02*
X48364920Y-16920670D01*
X48841170Y-14985670D02*
X48871170Y-15015670D01*
X48871170Y-14985670D02*
X48841170Y-15015670D01*
X48841170Y-18795670D02*
X48871170Y-18825670D01*
X48871170Y-18795670D02*
X48841170Y-18825670D01*
X49053420Y-16096670D02*
X49083420Y-16126670D01*
X49083420Y-16096670D02*
X49053420Y-16126670D01*
X50269920Y-16890670D02*
X50299920Y-16920670D01*
X50299920Y-16890670D02*
X50269920Y-16920670D01*
D11*
X8078535Y-25775069D02*
X8078535Y-25575069D01*
X8078535Y-25575069D02*
X8126154Y-25575069D01*
X8126154Y-25575069D02*
X8154726Y-25584593D01*
X8154726Y-25584593D02*
X8173774Y-25603640D01*
X8173774Y-25603640D02*
X8183297Y-25622688D01*
X8183297Y-25622688D02*
X8192821Y-25660783D01*
X8192821Y-25660783D02*
X8192821Y-25689355D01*
X8192821Y-25689355D02*
X8183297Y-25727450D01*
X8183297Y-25727450D02*
X8173774Y-25746497D01*
X8173774Y-25746497D02*
X8154726Y-25765545D01*
X8154726Y-25765545D02*
X8126154Y-25775069D01*
X8126154Y-25775069D02*
X8078535Y-25775069D01*
X8278535Y-25775069D02*
X8278535Y-25641736D01*
X8278535Y-25679831D02*
X8288059Y-25660783D01*
X8288059Y-25660783D02*
X8297583Y-25651259D01*
X8297583Y-25651259D02*
X8316631Y-25641736D01*
X8316631Y-25641736D02*
X8335678Y-25641736D01*
X8402345Y-25775069D02*
X8402345Y-25641736D01*
X8402345Y-25575069D02*
X8392821Y-25584593D01*
X8392821Y-25584593D02*
X8402345Y-25594117D01*
X8402345Y-25594117D02*
X8411869Y-25584593D01*
X8411869Y-25584593D02*
X8402345Y-25575069D01*
X8402345Y-25575069D02*
X8402345Y-25594117D01*
X8526155Y-25775069D02*
X8507107Y-25765545D01*
X8507107Y-25765545D02*
X8497583Y-25746497D01*
X8497583Y-25746497D02*
X8497583Y-25575069D01*
X8630916Y-25775069D02*
X8611869Y-25765545D01*
X8611869Y-25765545D02*
X8602345Y-25746497D01*
X8602345Y-25746497D02*
X8602345Y-25575069D01*
X8859488Y-25775069D02*
X8859488Y-25575069D01*
X8859488Y-25575069D02*
X8926155Y-25717926D01*
X8926155Y-25717926D02*
X8992821Y-25575069D01*
X8992821Y-25575069D02*
X8992821Y-25775069D01*
X9173774Y-25775069D02*
X9173774Y-25670307D01*
X9173774Y-25670307D02*
X9164250Y-25651259D01*
X9164250Y-25651259D02*
X9145202Y-25641736D01*
X9145202Y-25641736D02*
X9107107Y-25641736D01*
X9107107Y-25641736D02*
X9088059Y-25651259D01*
X9173774Y-25765545D02*
X9154726Y-25775069D01*
X9154726Y-25775069D02*
X9107107Y-25775069D01*
X9107107Y-25775069D02*
X9088059Y-25765545D01*
X9088059Y-25765545D02*
X9078536Y-25746497D01*
X9078536Y-25746497D02*
X9078536Y-25727450D01*
X9078536Y-25727450D02*
X9088059Y-25708402D01*
X9088059Y-25708402D02*
X9107107Y-25698878D01*
X9107107Y-25698878D02*
X9154726Y-25698878D01*
X9154726Y-25698878D02*
X9173774Y-25689355D01*
X9269012Y-25641736D02*
X9269012Y-25841736D01*
X9269012Y-25651259D02*
X9288059Y-25641736D01*
X9288059Y-25641736D02*
X9326155Y-25641736D01*
X9326155Y-25641736D02*
X9345202Y-25651259D01*
X9345202Y-25651259D02*
X9354726Y-25660783D01*
X9354726Y-25660783D02*
X9364250Y-25679831D01*
X9364250Y-25679831D02*
X9364250Y-25736974D01*
X9364250Y-25736974D02*
X9354726Y-25756021D01*
X9354726Y-25756021D02*
X9345202Y-25765545D01*
X9345202Y-25765545D02*
X9326155Y-25775069D01*
X9326155Y-25775069D02*
X9288059Y-25775069D01*
X9288059Y-25775069D02*
X9269012Y-25765545D01*
X9449964Y-25756021D02*
X9459488Y-25765545D01*
X9459488Y-25765545D02*
X9449964Y-25775069D01*
X9449964Y-25775069D02*
X9440440Y-25765545D01*
X9440440Y-25765545D02*
X9449964Y-25756021D01*
X9449964Y-25756021D02*
X9449964Y-25775069D01*
X9449964Y-25651259D02*
X9459488Y-25660783D01*
X9459488Y-25660783D02*
X9449964Y-25670307D01*
X9449964Y-25670307D02*
X9440440Y-25660783D01*
X9440440Y-25660783D02*
X9449964Y-25651259D01*
X9449964Y-25651259D02*
X9449964Y-25670307D01*
D12*
X7787759Y-26088585D02*
X7817759Y-26118585D01*
X7817759Y-26088585D02*
X7787759Y-26118585D01*
D11*
X8116631Y-25995069D02*
X8135678Y-25995069D01*
X8135678Y-25995069D02*
X8154726Y-26004593D01*
X8154726Y-26004593D02*
X8164250Y-26014117D01*
X8164250Y-26014117D02*
X8173774Y-26033164D01*
X8173774Y-26033164D02*
X8183297Y-26071259D01*
X8183297Y-26071259D02*
X8183297Y-26118878D01*
X8183297Y-26118878D02*
X8173774Y-26156974D01*
X8173774Y-26156974D02*
X8164250Y-26176021D01*
X8164250Y-26176021D02*
X8154726Y-26185545D01*
X8154726Y-26185545D02*
X8135678Y-26195069D01*
X8135678Y-26195069D02*
X8116631Y-26195069D01*
X8116631Y-26195069D02*
X8097583Y-26185545D01*
X8097583Y-26185545D02*
X8088059Y-26176021D01*
X8088059Y-26176021D02*
X8078535Y-26156974D01*
X8078535Y-26156974D02*
X8069012Y-26118878D01*
X8069012Y-26118878D02*
X8069012Y-26071259D01*
X8069012Y-26071259D02*
X8078535Y-26033164D01*
X8078535Y-26033164D02*
X8088059Y-26014117D01*
X8088059Y-26014117D02*
X8097583Y-26004593D01*
X8097583Y-26004593D02*
X8116631Y-25995069D01*
X8269012Y-26176021D02*
X8278535Y-26185545D01*
X8278535Y-26185545D02*
X8269012Y-26195069D01*
X8269012Y-26195069D02*
X8259488Y-26185545D01*
X8259488Y-26185545D02*
X8269012Y-26176021D01*
X8269012Y-26176021D02*
X8269012Y-26195069D01*
X8345202Y-25995069D02*
X8469012Y-25995069D01*
X8469012Y-25995069D02*
X8402345Y-26071259D01*
X8402345Y-26071259D02*
X8430917Y-26071259D01*
X8430917Y-26071259D02*
X8449964Y-26080783D01*
X8449964Y-26080783D02*
X8459488Y-26090307D01*
X8459488Y-26090307D02*
X8469012Y-26109355D01*
X8469012Y-26109355D02*
X8469012Y-26156974D01*
X8469012Y-26156974D02*
X8459488Y-26176021D01*
X8459488Y-26176021D02*
X8449964Y-26185545D01*
X8449964Y-26185545D02*
X8430917Y-26195069D01*
X8430917Y-26195069D02*
X8373774Y-26195069D01*
X8373774Y-26195069D02*
X8354726Y-26185545D01*
X8354726Y-26185545D02*
X8345202Y-26176021D01*
X8592821Y-25995069D02*
X8611869Y-25995069D01*
X8611869Y-25995069D02*
X8630917Y-26004593D01*
X8630917Y-26004593D02*
X8640440Y-26014117D01*
X8640440Y-26014117D02*
X8649964Y-26033164D01*
X8649964Y-26033164D02*
X8659488Y-26071259D01*
X8659488Y-26071259D02*
X8659488Y-26118878D01*
X8659488Y-26118878D02*
X8649964Y-26156974D01*
X8649964Y-26156974D02*
X8640440Y-26176021D01*
X8640440Y-26176021D02*
X8630917Y-26185545D01*
X8630917Y-26185545D02*
X8611869Y-26195069D01*
X8611869Y-26195069D02*
X8592821Y-26195069D01*
X8592821Y-26195069D02*
X8573774Y-26185545D01*
X8573774Y-26185545D02*
X8564250Y-26176021D01*
X8564250Y-26176021D02*
X8554726Y-26156974D01*
X8554726Y-26156974D02*
X8545202Y-26118878D01*
X8545202Y-26118878D02*
X8545202Y-26071259D01*
X8545202Y-26071259D02*
X8554726Y-26033164D01*
X8554726Y-26033164D02*
X8564250Y-26014117D01*
X8564250Y-26014117D02*
X8573774Y-26004593D01*
X8573774Y-26004593D02*
X8592821Y-25995069D01*
X8783297Y-25995069D02*
X8802345Y-25995069D01*
X8802345Y-25995069D02*
X8821393Y-26004593D01*
X8821393Y-26004593D02*
X8830917Y-26014117D01*
X8830917Y-26014117D02*
X8840440Y-26033164D01*
X8840440Y-26033164D02*
X8849964Y-26071259D01*
X8849964Y-26071259D02*
X8849964Y-26118878D01*
X8849964Y-26118878D02*
X8840440Y-26156974D01*
X8840440Y-26156974D02*
X8830917Y-26176021D01*
X8830917Y-26176021D02*
X8821393Y-26185545D01*
X8821393Y-26185545D02*
X8802345Y-26195069D01*
X8802345Y-26195069D02*
X8783297Y-26195069D01*
X8783297Y-26195069D02*
X8764250Y-26185545D01*
X8764250Y-26185545D02*
X8754726Y-26176021D01*
X8754726Y-26176021D02*
X8745202Y-26156974D01*
X8745202Y-26156974D02*
X8735678Y-26118878D01*
X8735678Y-26118878D02*
X8735678Y-26071259D01*
X8735678Y-26071259D02*
X8745202Y-26033164D01*
X8745202Y-26033164D02*
X8754726Y-26014117D01*
X8754726Y-26014117D02*
X8764250Y-26004593D01*
X8764250Y-26004593D02*
X8783297Y-25995069D01*
X8935678Y-26195069D02*
X8935678Y-26061736D01*
X8935678Y-26080783D02*
X8945202Y-26071259D01*
X8945202Y-26071259D02*
X8964250Y-26061736D01*
X8964250Y-26061736D02*
X8992821Y-26061736D01*
X8992821Y-26061736D02*
X9011869Y-26071259D01*
X9011869Y-26071259D02*
X9021393Y-26090307D01*
X9021393Y-26090307D02*
X9021393Y-26195069D01*
X9021393Y-26090307D02*
X9030917Y-26071259D01*
X9030917Y-26071259D02*
X9049964Y-26061736D01*
X9049964Y-26061736D02*
X9078536Y-26061736D01*
X9078536Y-26061736D02*
X9097583Y-26071259D01*
X9097583Y-26071259D02*
X9107107Y-26090307D01*
X9107107Y-26090307D02*
X9107107Y-26195069D01*
X9202345Y-26195069D02*
X9202345Y-26061736D01*
X9202345Y-26080783D02*
X9211869Y-26071259D01*
X9211869Y-26071259D02*
X9230917Y-26061736D01*
X9230917Y-26061736D02*
X9259488Y-26061736D01*
X9259488Y-26061736D02*
X9278536Y-26071259D01*
X9278536Y-26071259D02*
X9288059Y-26090307D01*
X9288059Y-26090307D02*
X9288059Y-26195069D01*
X9288059Y-26090307D02*
X9297583Y-26071259D01*
X9297583Y-26071259D02*
X9316631Y-26061736D01*
X9316631Y-26061736D02*
X9345202Y-26061736D01*
X9345202Y-26061736D02*
X9364250Y-26071259D01*
X9364250Y-26071259D02*
X9373774Y-26090307D01*
X9373774Y-26090307D02*
X9373774Y-26195069D01*
X9764250Y-25985545D02*
X9592821Y-26242688D01*
X10021393Y-25995069D02*
X10040441Y-25995069D01*
X10040441Y-25995069D02*
X10059488Y-26004593D01*
X10059488Y-26004593D02*
X10069012Y-26014117D01*
X10069012Y-26014117D02*
X10078536Y-26033164D01*
X10078536Y-26033164D02*
X10088060Y-26071259D01*
X10088060Y-26071259D02*
X10088060Y-26118878D01*
X10088060Y-26118878D02*
X10078536Y-26156974D01*
X10078536Y-26156974D02*
X10069012Y-26176021D01*
X10069012Y-26176021D02*
X10059488Y-26185545D01*
X10059488Y-26185545D02*
X10040441Y-26195069D01*
X10040441Y-26195069D02*
X10021393Y-26195069D01*
X10021393Y-26195069D02*
X10002345Y-26185545D01*
X10002345Y-26185545D02*
X9992821Y-26176021D01*
X9992821Y-26176021D02*
X9983298Y-26156974D01*
X9983298Y-26156974D02*
X9973774Y-26118878D01*
X9973774Y-26118878D02*
X9973774Y-26071259D01*
X9973774Y-26071259D02*
X9983298Y-26033164D01*
X9983298Y-26033164D02*
X9992821Y-26014117D01*
X9992821Y-26014117D02*
X10002345Y-26004593D01*
X10002345Y-26004593D02*
X10021393Y-25995069D01*
X10173774Y-26176021D02*
X10183298Y-26185545D01*
X10183298Y-26185545D02*
X10173774Y-26195069D01*
X10173774Y-26195069D02*
X10164250Y-26185545D01*
X10164250Y-26185545D02*
X10173774Y-26176021D01*
X10173774Y-26176021D02*
X10173774Y-26195069D01*
X10307107Y-25995069D02*
X10326155Y-25995069D01*
X10326155Y-25995069D02*
X10345202Y-26004593D01*
X10345202Y-26004593D02*
X10354726Y-26014117D01*
X10354726Y-26014117D02*
X10364250Y-26033164D01*
X10364250Y-26033164D02*
X10373774Y-26071259D01*
X10373774Y-26071259D02*
X10373774Y-26118878D01*
X10373774Y-26118878D02*
X10364250Y-26156974D01*
X10364250Y-26156974D02*
X10354726Y-26176021D01*
X10354726Y-26176021D02*
X10345202Y-26185545D01*
X10345202Y-26185545D02*
X10326155Y-26195069D01*
X10326155Y-26195069D02*
X10307107Y-26195069D01*
X10307107Y-26195069D02*
X10288060Y-26185545D01*
X10288060Y-26185545D02*
X10278536Y-26176021D01*
X10278536Y-26176021D02*
X10269012Y-26156974D01*
X10269012Y-26156974D02*
X10259488Y-26118878D01*
X10259488Y-26118878D02*
X10259488Y-26071259D01*
X10259488Y-26071259D02*
X10269012Y-26033164D01*
X10269012Y-26033164D02*
X10278536Y-26014117D01*
X10278536Y-26014117D02*
X10288060Y-26004593D01*
X10288060Y-26004593D02*
X10307107Y-25995069D01*
X10564250Y-26195069D02*
X10449964Y-26195069D01*
X10507107Y-26195069D02*
X10507107Y-25995069D01*
X10507107Y-25995069D02*
X10488060Y-26023640D01*
X10488060Y-26023640D02*
X10469012Y-26042688D01*
X10469012Y-26042688D02*
X10449964Y-26052212D01*
X10754726Y-26195069D02*
X10640441Y-26195069D01*
X10697583Y-26195069D02*
X10697583Y-25995069D01*
X10697583Y-25995069D02*
X10678536Y-26023640D01*
X10678536Y-26023640D02*
X10659488Y-26042688D01*
X10659488Y-26042688D02*
X10640441Y-26052212D01*
X10869012Y-26080783D02*
X10849964Y-26071259D01*
X10849964Y-26071259D02*
X10840441Y-26061736D01*
X10840441Y-26061736D02*
X10830917Y-26042688D01*
X10830917Y-26042688D02*
X10830917Y-26033164D01*
X10830917Y-26033164D02*
X10840441Y-26014117D01*
X10840441Y-26014117D02*
X10849964Y-26004593D01*
X10849964Y-26004593D02*
X10869012Y-25995069D01*
X10869012Y-25995069D02*
X10907107Y-25995069D01*
X10907107Y-25995069D02*
X10926155Y-26004593D01*
X10926155Y-26004593D02*
X10935679Y-26014117D01*
X10935679Y-26014117D02*
X10945202Y-26033164D01*
X10945202Y-26033164D02*
X10945202Y-26042688D01*
X10945202Y-26042688D02*
X10935679Y-26061736D01*
X10935679Y-26061736D02*
X10926155Y-26071259D01*
X10926155Y-26071259D02*
X10907107Y-26080783D01*
X10907107Y-26080783D02*
X10869012Y-26080783D01*
X10869012Y-26080783D02*
X10849964Y-26090307D01*
X10849964Y-26090307D02*
X10840441Y-26099831D01*
X10840441Y-26099831D02*
X10830917Y-26118878D01*
X10830917Y-26118878D02*
X10830917Y-26156974D01*
X10830917Y-26156974D02*
X10840441Y-26176021D01*
X10840441Y-26176021D02*
X10849964Y-26185545D01*
X10849964Y-26185545D02*
X10869012Y-26195069D01*
X10869012Y-26195069D02*
X10907107Y-26195069D01*
X10907107Y-26195069D02*
X10926155Y-26185545D01*
X10926155Y-26185545D02*
X10935679Y-26176021D01*
X10935679Y-26176021D02*
X10945202Y-26156974D01*
X10945202Y-26156974D02*
X10945202Y-26118878D01*
X10945202Y-26118878D02*
X10935679Y-26099831D01*
X10935679Y-26099831D02*
X10926155Y-26090307D01*
X10926155Y-26090307D02*
X10907107Y-26080783D01*
X11021393Y-25995069D02*
X11021393Y-26033164D01*
X11097583Y-25995069D02*
X11097583Y-26033164D01*
X11392822Y-26271259D02*
X11383298Y-26261736D01*
X11383298Y-26261736D02*
X11364250Y-26233164D01*
X11364250Y-26233164D02*
X11354726Y-26214117D01*
X11354726Y-26214117D02*
X11345202Y-26185545D01*
X11345202Y-26185545D02*
X11335679Y-26137926D01*
X11335679Y-26137926D02*
X11335679Y-26099831D01*
X11335679Y-26099831D02*
X11345202Y-26052212D01*
X11345202Y-26052212D02*
X11354726Y-26023640D01*
X11354726Y-26023640D02*
X11364250Y-26004593D01*
X11364250Y-26004593D02*
X11383298Y-25976021D01*
X11383298Y-25976021D02*
X11392822Y-25966497D01*
X11573774Y-26195069D02*
X11459488Y-26195069D01*
X11516631Y-26195069D02*
X11516631Y-25995069D01*
X11516631Y-25995069D02*
X11497583Y-26023640D01*
X11497583Y-26023640D02*
X11478536Y-26042688D01*
X11478536Y-26042688D02*
X11459488Y-26052212D01*
X11697583Y-25995069D02*
X11716631Y-25995069D01*
X11716631Y-25995069D02*
X11735679Y-26004593D01*
X11735679Y-26004593D02*
X11745202Y-26014117D01*
X11745202Y-26014117D02*
X11754726Y-26033164D01*
X11754726Y-26033164D02*
X11764250Y-26071259D01*
X11764250Y-26071259D02*
X11764250Y-26118878D01*
X11764250Y-26118878D02*
X11754726Y-26156974D01*
X11754726Y-26156974D02*
X11745202Y-26176021D01*
X11745202Y-26176021D02*
X11735679Y-26185545D01*
X11735679Y-26185545D02*
X11716631Y-26195069D01*
X11716631Y-26195069D02*
X11697583Y-26195069D01*
X11697583Y-26195069D02*
X11678536Y-26185545D01*
X11678536Y-26185545D02*
X11669012Y-26176021D01*
X11669012Y-26176021D02*
X11659488Y-26156974D01*
X11659488Y-26156974D02*
X11649964Y-26118878D01*
X11649964Y-26118878D02*
X11649964Y-26071259D01*
X11649964Y-26071259D02*
X11659488Y-26033164D01*
X11659488Y-26033164D02*
X11669012Y-26014117D01*
X11669012Y-26014117D02*
X11678536Y-26004593D01*
X11678536Y-26004593D02*
X11697583Y-25995069D01*
X11935679Y-25995069D02*
X11897583Y-25995069D01*
X11897583Y-25995069D02*
X11878536Y-26004593D01*
X11878536Y-26004593D02*
X11869012Y-26014117D01*
X11869012Y-26014117D02*
X11849964Y-26042688D01*
X11849964Y-26042688D02*
X11840441Y-26080783D01*
X11840441Y-26080783D02*
X11840441Y-26156974D01*
X11840441Y-26156974D02*
X11849964Y-26176021D01*
X11849964Y-26176021D02*
X11859488Y-26185545D01*
X11859488Y-26185545D02*
X11878536Y-26195069D01*
X11878536Y-26195069D02*
X11916631Y-26195069D01*
X11916631Y-26195069D02*
X11935679Y-26185545D01*
X11935679Y-26185545D02*
X11945202Y-26176021D01*
X11945202Y-26176021D02*
X11954726Y-26156974D01*
X11954726Y-26156974D02*
X11954726Y-26109355D01*
X11954726Y-26109355D02*
X11945202Y-26090307D01*
X11945202Y-26090307D02*
X11935679Y-26080783D01*
X11935679Y-26080783D02*
X11916631Y-26071259D01*
X11916631Y-26071259D02*
X11878536Y-26071259D01*
X11878536Y-26071259D02*
X11859488Y-26080783D01*
X11859488Y-26080783D02*
X11849964Y-26090307D01*
X11849964Y-26090307D02*
X11840441Y-26109355D01*
X12192822Y-26195069D02*
X12192822Y-25995069D01*
X12278536Y-26195069D02*
X12278536Y-26090307D01*
X12278536Y-26090307D02*
X12269012Y-26071259D01*
X12269012Y-26071259D02*
X12249964Y-26061736D01*
X12249964Y-26061736D02*
X12221393Y-26061736D01*
X12221393Y-26061736D02*
X12202345Y-26071259D01*
X12202345Y-26071259D02*
X12192822Y-26080783D01*
X12402345Y-26195069D02*
X12383298Y-26185545D01*
X12383298Y-26185545D02*
X12373774Y-26176021D01*
X12373774Y-26176021D02*
X12364250Y-26156974D01*
X12364250Y-26156974D02*
X12364250Y-26099831D01*
X12364250Y-26099831D02*
X12373774Y-26080783D01*
X12373774Y-26080783D02*
X12383298Y-26071259D01*
X12383298Y-26071259D02*
X12402345Y-26061736D01*
X12402345Y-26061736D02*
X12430917Y-26061736D01*
X12430917Y-26061736D02*
X12449964Y-26071259D01*
X12449964Y-26071259D02*
X12459488Y-26080783D01*
X12459488Y-26080783D02*
X12469012Y-26099831D01*
X12469012Y-26099831D02*
X12469012Y-26156974D01*
X12469012Y-26156974D02*
X12459488Y-26176021D01*
X12459488Y-26176021D02*
X12449964Y-26185545D01*
X12449964Y-26185545D02*
X12430917Y-26195069D01*
X12430917Y-26195069D02*
X12402345Y-26195069D01*
X12583298Y-26195069D02*
X12564250Y-26185545D01*
X12564250Y-26185545D02*
X12554726Y-26166497D01*
X12554726Y-26166497D02*
X12554726Y-25995069D01*
X12735679Y-26185545D02*
X12716631Y-26195069D01*
X12716631Y-26195069D02*
X12678536Y-26195069D01*
X12678536Y-26195069D02*
X12659488Y-26185545D01*
X12659488Y-26185545D02*
X12649964Y-26166497D01*
X12649964Y-26166497D02*
X12649964Y-26090307D01*
X12649964Y-26090307D02*
X12659488Y-26071259D01*
X12659488Y-26071259D02*
X12678536Y-26061736D01*
X12678536Y-26061736D02*
X12716631Y-26061736D01*
X12716631Y-26061736D02*
X12735679Y-26071259D01*
X12735679Y-26071259D02*
X12745203Y-26090307D01*
X12745203Y-26090307D02*
X12745203Y-26109355D01*
X12745203Y-26109355D02*
X12649964Y-26128402D01*
X12821393Y-26185545D02*
X12840441Y-26195069D01*
X12840441Y-26195069D02*
X12878536Y-26195069D01*
X12878536Y-26195069D02*
X12897584Y-26185545D01*
X12897584Y-26185545D02*
X12907107Y-26166497D01*
X12907107Y-26166497D02*
X12907107Y-26156974D01*
X12907107Y-26156974D02*
X12897584Y-26137926D01*
X12897584Y-26137926D02*
X12878536Y-26128402D01*
X12878536Y-26128402D02*
X12849964Y-26128402D01*
X12849964Y-26128402D02*
X12830917Y-26118878D01*
X12830917Y-26118878D02*
X12821393Y-26099831D01*
X12821393Y-26099831D02*
X12821393Y-26090307D01*
X12821393Y-26090307D02*
X12830917Y-26071259D01*
X12830917Y-26071259D02*
X12849964Y-26061736D01*
X12849964Y-26061736D02*
X12878536Y-26061736D01*
X12878536Y-26061736D02*
X12897584Y-26071259D01*
X12973774Y-26271259D02*
X12983298Y-26261736D01*
X12983298Y-26261736D02*
X13002345Y-26233164D01*
X13002345Y-26233164D02*
X13011869Y-26214117D01*
X13011869Y-26214117D02*
X13021393Y-26185545D01*
X13021393Y-26185545D02*
X13030917Y-26137926D01*
X13030917Y-26137926D02*
X13030917Y-26099831D01*
X13030917Y-26099831D02*
X13021393Y-26052212D01*
X13021393Y-26052212D02*
X13011869Y-26023640D01*
X13011869Y-26023640D02*
X13002345Y-26004593D01*
X13002345Y-26004593D02*
X12983298Y-25976021D01*
X12983298Y-25976021D02*
X12973774Y-25966497D01*
M02*
