G04 #@! TF.GenerationSoftware,KiCad,Pcbnew,8.0.9*
G04 #@! TF.CreationDate,2025-09-29T16:44:46-07:00*
G04 #@! TF.ProjectId,keyboard,6b657962-6f61-4726-942e-6b696361645f,v0.0.0-alpha*
G04 #@! TF.SameCoordinates,Original*
G04 #@! TF.FileFunction,Paste,Bot*
G04 #@! TF.FilePolarity,Positive*
%FSLAX46Y46*%
G04 Gerber Fmt 4.6, Leading zero omitted, Abs format (unit mm)*
G04 Created by KiCad (PCBNEW 8.0.9) date 2025-09-29 16:44:46*
%MOMM*%
%LPD*%
G01*
G04 APERTURE LIST*
G04 Aperture macros list*
%AMRoundRect*
0 Rectangle with rounded corners*
0 $1 Rounding radius*
0 $2 $3 $4 $5 $6 $7 $8 $9 X,Y pos of 4 corners*
0 Add a 4 corners polygon primitive as box body*
4,1,4,$2,$3,$4,$5,$6,$7,$8,$9,$2,$3,0*
0 Add four circle primitives for the rounded corners*
1,1,$1+$1,$2,$3*
1,1,$1+$1,$4,$5*
1,1,$1+$1,$6,$7*
1,1,$1+$1,$8,$9*
0 Add four rect primitives between the rounded corners*
20,1,$1+$1,$2,$3,$4,$5,0*
20,1,$1+$1,$4,$5,$6,$7,0*
20,1,$1+$1,$6,$7,$8,$9,0*
20,1,$1+$1,$8,$9,$2,$3,0*%
G04 Aperture macros list end*
%ADD10RoundRect,0.250000X-1.025000X-1.000000X1.025000X-1.000000X1.025000X1.000000X-1.025000X1.000000X0*%
%ADD11RoundRect,0.250000X0.300000X-0.300000X0.300000X0.300000X-0.300000X0.300000X-0.300000X-0.300000X0*%
G04 APERTURE END LIST*
D10*
G04 #@! TO.C,SW27*
X414484200Y-161116700D03*
X427411200Y-158576700D03*
G04 #@! TD*
G04 #@! TO.C,SW37*
X195409200Y-180166700D03*
X208336200Y-177626700D03*
G04 #@! TD*
G04 #@! TO.C,SW63*
X466871700Y-199216700D03*
X479798700Y-196676700D03*
G04 #@! TD*
G04 #@! TO.C,SW50*
X147784200Y-199216700D03*
X160711200Y-196676700D03*
G04 #@! TD*
G04 #@! TO.C,SW71*
X381146700Y-218266700D03*
X394073700Y-215726700D03*
G04 #@! TD*
G04 #@! TO.C,SW39*
X257321700Y-180166700D03*
X270248700Y-177626700D03*
G04 #@! TD*
G04 #@! TO.C,SW56*
X319234200Y-199216700D03*
X332161200Y-196676700D03*
G04 #@! TD*
G04 #@! TO.C,SW45*
X438296700Y-180166700D03*
X451223700Y-177626700D03*
G04 #@! TD*
G04 #@! TO.C,SW6*
X200171700Y-142066700D03*
X213098700Y-139526700D03*
G04 #@! TD*
G04 #@! TO.C,SW70*
X362096700Y-218266700D03*
X375023700Y-215726700D03*
G04 #@! TD*
G04 #@! TO.C,SW72*
X443059200Y-218266700D03*
X455986200Y-215726700D03*
G04 #@! TD*
G04 #@! TO.C,SW40*
X319234200Y-180166700D03*
X332161200Y-177626700D03*
G04 #@! TD*
G04 #@! TO.C,SW65*
X133496700Y-218266700D03*
X146423700Y-215726700D03*
G04 #@! TD*
G04 #@! TO.C,SW1*
X104921700Y-142066700D03*
X117848700Y-139526700D03*
G04 #@! TD*
G04 #@! TO.C,SW64*
X114446700Y-218266700D03*
X127373700Y-215726700D03*
G04 #@! TD*
G04 #@! TO.C,SW21*
X209696700Y-161116700D03*
X222623700Y-158576700D03*
G04 #@! TD*
G04 #@! TO.C,SW68*
X233509200Y-218266700D03*
X246436200Y-215726700D03*
G04 #@! TD*
G04 #@! TO.C,SW75*
X219221700Y-237316700D03*
X232148700Y-234776700D03*
G04 #@! TD*
G04 #@! TO.C,SW13*
X457346700Y-142066700D03*
X470273700Y-139526700D03*
G04 #@! TD*
G04 #@! TO.C,SW38*
X214459200Y-180166700D03*
X227386200Y-177626700D03*
G04 #@! TD*
G04 #@! TO.C,SW29*
X452584200Y-161116700D03*
X465511200Y-158576700D03*
G04 #@! TD*
G04 #@! TO.C,SW22*
X257321700Y-161116700D03*
X270248700Y-158576700D03*
G04 #@! TD*
G04 #@! TO.C,SW53*
X204934200Y-199216700D03*
X217861200Y-196676700D03*
G04 #@! TD*
G04 #@! TO.C,SW57*
X352571700Y-199216700D03*
X365498700Y-196676700D03*
G04 #@! TD*
G04 #@! TO.C,SW61*
X428771700Y-199216700D03*
X441698700Y-196676700D03*
G04 #@! TD*
G04 #@! TO.C,SW74*
X200171700Y-237316700D03*
X213098700Y-234776700D03*
G04 #@! TD*
G04 #@! TO.C,SW60*
X409721700Y-199216700D03*
X422648700Y-196676700D03*
G04 #@! TD*
G04 #@! TO.C,SW32*
X100159200Y-180166700D03*
X113086200Y-177626700D03*
G04 #@! TD*
G04 #@! TO.C,SW42*
X381146700Y-180166700D03*
X394073700Y-177626700D03*
G04 #@! TD*
G04 #@! TO.C,SW49*
X128734200Y-199216700D03*
X141661200Y-196676700D03*
G04 #@! TD*
G04 #@! TO.C,SW52*
X185884200Y-199216700D03*
X198811200Y-196676700D03*
G04 #@! TD*
G04 #@! TO.C,SW66*
X195409200Y-218266700D03*
X208336200Y-215726700D03*
G04 #@! TD*
G04 #@! TO.C,SW18*
X152546700Y-161116700D03*
X165473700Y-158576700D03*
G04 #@! TD*
G04 #@! TO.C,SW59*
X390671700Y-199216700D03*
X403598700Y-196676700D03*
G04 #@! TD*
G04 #@! TO.C,SW16*
X114446700Y-161116700D03*
X127373700Y-158576700D03*
G04 #@! TD*
G04 #@! TO.C,SW31*
X490684200Y-161116700D03*
X503611200Y-158576700D03*
G04 #@! TD*
G04 #@! TO.C,SW11*
X419246700Y-142066700D03*
X432173700Y-139526700D03*
G04 #@! TD*
G04 #@! TO.C,SW8*
X362096700Y-142066700D03*
X375023700Y-139526700D03*
G04 #@! TD*
G04 #@! TO.C,SW4*
X162071700Y-142066700D03*
X174998700Y-139526700D03*
G04 #@! TD*
G04 #@! TO.C,SW17*
X133496700Y-161116700D03*
X146423700Y-158576700D03*
G04 #@! TD*
G04 #@! TO.C,SW41*
X362096700Y-180166700D03*
X375023700Y-177626700D03*
G04 #@! TD*
G04 #@! TO.C,SW10*
X400196700Y-142066700D03*
X413123700Y-139526700D03*
G04 #@! TD*
G04 #@! TO.C,SW69*
X343046700Y-218266700D03*
X355973700Y-215726700D03*
G04 #@! TD*
G04 #@! TO.C,SW76*
X238271700Y-237316700D03*
X251198700Y-234776700D03*
G04 #@! TD*
G04 #@! TO.C,SW15*
X95396700Y-161116700D03*
X108323700Y-158576700D03*
G04 #@! TD*
G04 #@! TO.C,SW43*
X400196700Y-180166700D03*
X413123700Y-177626700D03*
G04 #@! TD*
G04 #@! TO.C,SW25*
X376384200Y-161116700D03*
X389311200Y-158576700D03*
G04 #@! TD*
G04 #@! TO.C,SW78*
X338284200Y-237316700D03*
X351211200Y-234776700D03*
G04 #@! TD*
G04 #@! TO.C,SW28*
X433534200Y-161116700D03*
X446461200Y-158576700D03*
G04 #@! TD*
G04 #@! TO.C,SW77*
X288278000Y-237316700D03*
X301205000Y-234776700D03*
G04 #@! TD*
G04 #@! TO.C,SW14*
X476396700Y-142066700D03*
X489323700Y-139526700D03*
G04 #@! TD*
G04 #@! TO.C,SW54*
X223984200Y-199216700D03*
X236911200Y-196676700D03*
G04 #@! TD*
G04 #@! TO.C,SW26*
X395434200Y-161116700D03*
X408361200Y-158576700D03*
G04 #@! TD*
G04 #@! TO.C,SW80*
X376384200Y-237316700D03*
X389311200Y-234776700D03*
G04 #@! TD*
G04 #@! TO.C,SW47*
X476396700Y-180166700D03*
X489323700Y-177626700D03*
G04 #@! TD*
G04 #@! TO.C,SW24*
X357334200Y-161116700D03*
X370261200Y-158576700D03*
G04 #@! TD*
G04 #@! TO.C,SW46*
X457346700Y-180166700D03*
X470273700Y-177626700D03*
G04 #@! TD*
G04 #@! TO.C,SW3*
X143021700Y-142066700D03*
X155948700Y-139526700D03*
G04 #@! TD*
G04 #@! TO.C,SW58*
X371621700Y-199216700D03*
X384548700Y-196676700D03*
G04 #@! TD*
G04 #@! TO.C,SW51*
X166834200Y-199216700D03*
X179761200Y-196676700D03*
G04 #@! TD*
G04 #@! TO.C,SW36*
X176359200Y-180166700D03*
X189286200Y-177626700D03*
G04 #@! TD*
G04 #@! TO.C,SW30*
X471634200Y-161116700D03*
X484561200Y-158576700D03*
G04 #@! TD*
G04 #@! TO.C,SW34*
X138259200Y-180166700D03*
X151186200Y-177626700D03*
G04 #@! TD*
G04 #@! TO.C,SW79*
X357334200Y-237316700D03*
X370261200Y-234776700D03*
G04 #@! TD*
G04 #@! TO.C,SW67*
X214459200Y-218266700D03*
X227386200Y-215726700D03*
G04 #@! TD*
G04 #@! TO.C,SW7*
X219221700Y-142066700D03*
X232148700Y-139526700D03*
G04 #@! TD*
G04 #@! TO.C,SW12*
X438296700Y-142066700D03*
X451223700Y-139526700D03*
G04 #@! TD*
G04 #@! TO.C,SW73*
X462109200Y-218266700D03*
X475036200Y-215726700D03*
G04 #@! TD*
G04 #@! TO.C,SW2*
X123971700Y-142066700D03*
X136898700Y-139526700D03*
G04 #@! TD*
G04 #@! TO.C,SW33*
X119209200Y-180166700D03*
X132136200Y-177626700D03*
G04 #@! TD*
G04 #@! TO.C,SW23*
X319234200Y-161116700D03*
X332161200Y-158576700D03*
G04 #@! TD*
G04 #@! TO.C,SW20*
X190646700Y-161116700D03*
X203573700Y-158576700D03*
G04 #@! TD*
G04 #@! TO.C,SW44*
X419246700Y-180166700D03*
X432173700Y-177626700D03*
G04 #@! TD*
G04 #@! TO.C,SW55*
X257321700Y-199216700D03*
X270248700Y-196676700D03*
G04 #@! TD*
G04 #@! TO.C,SW9*
X381146700Y-142066700D03*
X394073700Y-139526700D03*
G04 #@! TD*
G04 #@! TO.C,SW48*
X109684200Y-199216700D03*
X122611200Y-196676700D03*
G04 #@! TD*
G04 #@! TO.C,SW19*
X171596700Y-161116700D03*
X184523700Y-158576700D03*
G04 #@! TD*
G04 #@! TO.C,SW35*
X157309200Y-180166700D03*
X170236200Y-177626700D03*
G04 #@! TD*
G04 #@! TO.C,SW5*
X181121700Y-142066700D03*
X194048700Y-139526700D03*
G04 #@! TD*
G04 #@! TO.C,SW62*
X447821700Y-199216700D03*
X460748700Y-196676700D03*
G04 #@! TD*
D11*
G04 #@! TO.C,D63*
X479036700Y-207156700D03*
X479036700Y-204356700D03*
G04 #@! TD*
G04 #@! TO.C,D47*
X488561700Y-188106700D03*
X488561700Y-185306700D03*
G04 #@! TD*
G04 #@! TO.C,D53*
X217099200Y-207156700D03*
X217099200Y-204356700D03*
G04 #@! TD*
G04 #@! TO.C,D40*
X331399200Y-188106700D03*
X331399200Y-185306700D03*
G04 #@! TD*
G04 #@! TO.C,D76*
X250436700Y-245256700D03*
X250436700Y-242456700D03*
G04 #@! TD*
G04 #@! TO.C,D75*
X231386700Y-245256700D03*
X231386700Y-242456700D03*
G04 #@! TD*
G04 #@! TO.C,D64*
X126611700Y-226206700D03*
X126611700Y-223406700D03*
G04 #@! TD*
G04 #@! TO.C,D69*
X355211700Y-226206700D03*
X355211700Y-223406700D03*
G04 #@! TD*
G04 #@! TO.C,D38*
X226624200Y-188106700D03*
X226624200Y-185306700D03*
G04 #@! TD*
G04 #@! TO.C,D14*
X488561700Y-150006700D03*
X488561700Y-147206700D03*
G04 #@! TD*
G04 #@! TO.C,D26*
X407599200Y-169056700D03*
X407599200Y-166256700D03*
G04 #@! TD*
G04 #@! TO.C,D6*
X212336700Y-150006700D03*
X212336700Y-147206700D03*
G04 #@! TD*
G04 #@! TO.C,D15*
X107561700Y-169056700D03*
X107561700Y-166256700D03*
G04 #@! TD*
G04 #@! TO.C,D8*
X374261700Y-150006700D03*
X374261700Y-147206700D03*
G04 #@! TD*
G04 #@! TO.C,D61*
X440936700Y-207156700D03*
X440936700Y-204356700D03*
G04 #@! TD*
G04 #@! TO.C,D72*
X455224200Y-226206700D03*
X455224200Y-223406700D03*
G04 #@! TD*
G04 #@! TO.C,D62*
X459986700Y-207156700D03*
X459986700Y-204356700D03*
G04 #@! TD*
G04 #@! TO.C,D70*
X374261700Y-226206700D03*
X374261700Y-223406700D03*
G04 #@! TD*
G04 #@! TO.C,D2*
X136136700Y-150006700D03*
X136136700Y-147206700D03*
G04 #@! TD*
G04 #@! TO.C,D44*
X431411700Y-188106700D03*
X431411700Y-185306700D03*
G04 #@! TD*
G04 #@! TO.C,D60*
X421886700Y-207156700D03*
X421886700Y-204356700D03*
G04 #@! TD*
G04 #@! TO.C,D21*
X221861700Y-169056700D03*
X221861700Y-166256700D03*
G04 #@! TD*
G04 #@! TO.C,D68*
X245674200Y-226206700D03*
X245674200Y-223406700D03*
G04 #@! TD*
G04 #@! TO.C,D24*
X369499200Y-169056700D03*
X369499200Y-166256700D03*
G04 #@! TD*
G04 #@! TO.C,D30*
X483799200Y-169056700D03*
X483799200Y-166256700D03*
G04 #@! TD*
G04 #@! TO.C,D39*
X269486700Y-188106700D03*
X269486700Y-185306700D03*
G04 #@! TD*
G04 #@! TO.C,D55*
X269486700Y-207156700D03*
X269486700Y-204356700D03*
G04 #@! TD*
G04 #@! TO.C,D29*
X464749200Y-169056700D03*
X464749200Y-166256700D03*
G04 #@! TD*
G04 #@! TO.C,D71*
X393311700Y-226206700D03*
X393311700Y-223406700D03*
G04 #@! TD*
G04 #@! TO.C,D34*
X150424200Y-188106700D03*
X150424200Y-185306700D03*
G04 #@! TD*
G04 #@! TO.C,D35*
X169474200Y-188106700D03*
X169474200Y-185306700D03*
G04 #@! TD*
G04 #@! TO.C,D16*
X126611700Y-169056700D03*
X126611700Y-166256700D03*
G04 #@! TD*
G04 #@! TO.C,D9*
X393311700Y-150006700D03*
X393311700Y-147206700D03*
G04 #@! TD*
G04 #@! TO.C,D67*
X226624200Y-226206700D03*
X226624200Y-223406700D03*
G04 #@! TD*
G04 #@! TO.C,D18*
X164711700Y-169056700D03*
X164711700Y-166256700D03*
G04 #@! TD*
G04 #@! TO.C,D33*
X131374200Y-188106700D03*
X131374200Y-185306700D03*
G04 #@! TD*
G04 #@! TO.C,D79*
X369499200Y-245256700D03*
X369499200Y-242456700D03*
G04 #@! TD*
G04 #@! TO.C,D78*
X350449200Y-245256700D03*
X350449200Y-242456700D03*
G04 #@! TD*
G04 #@! TO.C,D25*
X388549200Y-169056700D03*
X388549200Y-166256700D03*
G04 #@! TD*
G04 #@! TO.C,D54*
X236149200Y-207156700D03*
X236149200Y-204356700D03*
G04 #@! TD*
G04 #@! TO.C,D41*
X374261700Y-188106700D03*
X374261700Y-185306700D03*
G04 #@! TD*
G04 #@! TO.C,D32*
X112324200Y-188106700D03*
X112324200Y-185306700D03*
G04 #@! TD*
G04 #@! TO.C,D65*
X145661700Y-226206700D03*
X145661700Y-223406700D03*
G04 #@! TD*
G04 #@! TO.C,D22*
X269486700Y-169056700D03*
X269486700Y-166256700D03*
G04 #@! TD*
G04 #@! TO.C,D77*
X300443000Y-245256700D03*
X300443000Y-242456700D03*
G04 #@! TD*
G04 #@! TO.C,D36*
X188524200Y-188106700D03*
X188524200Y-185306700D03*
G04 #@! TD*
G04 #@! TO.C,D73*
X474274200Y-226206700D03*
X474274200Y-223406700D03*
G04 #@! TD*
G04 #@! TO.C,D50*
X159949200Y-207156700D03*
X159949200Y-204356700D03*
G04 #@! TD*
G04 #@! TO.C,D5*
X193286700Y-150006700D03*
X193286700Y-147206700D03*
G04 #@! TD*
G04 #@! TO.C,D49*
X140899200Y-207156700D03*
X140899200Y-204356700D03*
G04 #@! TD*
G04 #@! TO.C,D19*
X183761700Y-169056700D03*
X183761700Y-166256700D03*
G04 #@! TD*
G04 #@! TO.C,D37*
X207574200Y-188106700D03*
X207574200Y-185306700D03*
G04 #@! TD*
G04 #@! TO.C,D59*
X402836700Y-207156700D03*
X402836700Y-204356700D03*
G04 #@! TD*
G04 #@! TO.C,D4*
X174236700Y-150006700D03*
X174236700Y-147206700D03*
G04 #@! TD*
G04 #@! TO.C,D48*
X121849200Y-207156700D03*
X121849200Y-204356700D03*
G04 #@! TD*
G04 #@! TO.C,D43*
X412361700Y-188106700D03*
X412361700Y-185306700D03*
G04 #@! TD*
G04 #@! TO.C,D12*
X450461700Y-150006700D03*
X450461700Y-147206700D03*
G04 #@! TD*
G04 #@! TO.C,D28*
X445699200Y-169056700D03*
X445699200Y-166256700D03*
G04 #@! TD*
G04 #@! TO.C,D52*
X198049200Y-207156700D03*
X198049200Y-204356700D03*
G04 #@! TD*
G04 #@! TO.C,D13*
X469511700Y-150006700D03*
X469511700Y-147206700D03*
G04 #@! TD*
G04 #@! TO.C,D11*
X431411700Y-150006700D03*
X431411700Y-147206700D03*
G04 #@! TD*
G04 #@! TO.C,D74*
X212336700Y-245256700D03*
X212336700Y-242456700D03*
G04 #@! TD*
G04 #@! TO.C,D17*
X145661700Y-169056700D03*
X145661700Y-166256700D03*
G04 #@! TD*
G04 #@! TO.C,D66*
X207574200Y-226206700D03*
X207574200Y-223406700D03*
G04 #@! TD*
G04 #@! TO.C,D7*
X231386700Y-150006700D03*
X231386700Y-147206700D03*
G04 #@! TD*
G04 #@! TO.C,D51*
X178999200Y-207156700D03*
X178999200Y-204356700D03*
G04 #@! TD*
G04 #@! TO.C,D42*
X393311700Y-188106700D03*
X393311700Y-185306700D03*
G04 #@! TD*
G04 #@! TO.C,D3*
X155186700Y-150006700D03*
X155186700Y-147206700D03*
G04 #@! TD*
G04 #@! TO.C,D58*
X383786700Y-207156700D03*
X383786700Y-204356700D03*
G04 #@! TD*
G04 #@! TO.C,D46*
X469511700Y-188106700D03*
X469511700Y-185306700D03*
G04 #@! TD*
G04 #@! TO.C,D10*
X412361700Y-150006700D03*
X412361700Y-147206700D03*
G04 #@! TD*
G04 #@! TO.C,D31*
X502849200Y-169056700D03*
X502849200Y-166256700D03*
G04 #@! TD*
G04 #@! TO.C,D57*
X364736700Y-207156700D03*
X364736700Y-204356700D03*
G04 #@! TD*
G04 #@! TO.C,D1*
X117086700Y-150006700D03*
X117086700Y-147206700D03*
G04 #@! TD*
G04 #@! TO.C,D27*
X426649200Y-169056700D03*
X426649200Y-166256700D03*
G04 #@! TD*
G04 #@! TO.C,D45*
X450461700Y-188106700D03*
X450461700Y-185306700D03*
G04 #@! TD*
G04 #@! TO.C,D80*
X388549200Y-245256700D03*
X388549200Y-242456700D03*
G04 #@! TD*
G04 #@! TO.C,D20*
X202811700Y-169056700D03*
X202811700Y-166256700D03*
G04 #@! TD*
G04 #@! TO.C,D23*
X331399200Y-169056700D03*
X331399200Y-166256700D03*
G04 #@! TD*
G04 #@! TO.C,D56*
X331399200Y-207156700D03*
X331399200Y-204356700D03*
G04 #@! TD*
M02*
